<svg width="500" height="289" viewBox="0 0 500 289" fill="none" xmlns="http://www.w3.org/2000/svg">
<g clip-path="url(#clip0)">
<rect width="500" height="289" fill="url(#paint0_linear)"/>
<path d="M247.921 84.2939C247.175 83.6565 246.052 83.7447 245.415 84.4912L226.951 106.109C226.313 106.856 226.401 107.978 227.148 108.616C227.483 108.902 227.893 109.042 228.302 109.042C228.804 109.042 229.303 108.83 229.655 108.418L248.119 86.8006C248.756 86.0539 248.668 84.9316 247.921 84.2939V84.2939Z" fill="white"/>
<path d="M227.121 97.2077C227.46 97.5088 227.882 97.657 228.302 97.657C228.792 97.657 229.28 97.4555 229.631 97.0603L234.622 91.4455C235.274 90.7116 235.208 89.588 234.474 88.9356C233.74 88.2832 232.616 88.3493 231.964 89.0833L226.973 94.698C226.321 95.4317 226.387 96.5553 227.121 97.2077Z" fill="white"/>
<path d="M300.072 161.265C299.588 159.739 298.187 158.713 296.585 158.713H236.435C235.453 158.713 234.657 159.509 234.657 160.491C234.657 161.473 235.453 162.269 236.435 162.269H296.585C296.63 162.269 296.669 162.298 296.682 162.34L302.16 179.624C302.166 179.642 302.176 179.674 302.145 179.715C302.115 179.757 302.081 179.757 302.063 179.757H210.019C210.001 179.757 209.968 179.757 209.937 179.715C209.907 179.674 209.917 179.642 209.922 179.624L215.4 162.34C215.414 162.297 215.453 162.269 215.497 162.269H228.409C229.391 162.269 230.187 161.473 230.187 160.491C230.187 159.509 229.391 158.713 228.409 158.713H215.497C213.896 158.713 212.495 159.739 212.011 161.265L206.533 178.55C206.176 179.674 206.371 180.864 207.068 181.816C207.764 182.767 208.84 183.313 210.019 183.313H302.063C303.242 183.313 304.318 182.767 305.014 181.816C305.711 180.864 305.906 179.674 305.55 178.55L300.072 161.265Z" fill="white"/>
<path d="M302.972 62H209.11C205.19 62 202 65.1896 202 69.1101V129.327C202 133.247 205.19 136.437 209.11 136.437H244.021C243.899 140.009 243.548 145.935 242.783 149.258H235.13C234.148 149.258 233.352 150.055 233.352 151.036C233.352 152.018 234.148 152.814 235.13 152.814H276.953C277.935 152.814 278.731 152.018 278.731 151.036C278.731 150.055 277.935 149.258 276.953 149.258H269.3C268.535 145.935 268.184 140.009 268.062 136.437H302.973C306.893 136.437 310.083 133.247 310.083 129.327V69.1101C310.082 65.1896 306.893 62 302.972 62V62ZM246.413 149.258C247.197 145.239 247.481 139.35 247.578 136.437H264.504C264.601 139.35 264.885 145.239 265.669 149.258H246.413ZM306.527 129.327C306.527 131.286 304.932 132.881 302.972 132.881H209.11C207.15 132.881 205.556 131.286 205.556 129.327V122.883H306.527V129.327H306.527ZM306.527 119.327H301.856V93.0834C301.856 92.1015 301.06 91.3054 300.078 91.3054C299.096 91.3054 298.3 92.1015 298.3 93.0834V119.327H213.782V74.0525C213.782 73.7934 213.993 73.5827 214.252 73.5827H297.83C298.089 73.5827 298.3 73.7934 298.3 74.0525V84.9482C298.3 85.9301 299.096 86.7262 300.078 86.7262C301.06 86.7262 301.856 85.9301 301.856 84.9482V74.0525C301.856 71.8327 300.05 70.0268 297.83 70.0268H214.252C212.032 70.0268 210.226 71.8327 210.226 74.0525V119.327H205.556V69.1101C205.556 67.1503 207.15 65.5559 209.11 65.5559H302.972C304.932 65.5559 306.527 67.1503 306.527 69.1101V119.327Z" fill="white"/>
<path d="M228.409 166.053H225.997C225.015 166.053 224.219 166.849 224.219 167.831C224.219 168.813 225.015 169.609 225.997 169.609H228.409C229.391 169.609 230.187 168.813 230.187 167.831C230.187 166.849 229.391 166.053 228.409 166.053Z" fill="white"/>
<path d="M235.647 169.609H238.059C239.041 169.609 239.837 168.813 239.837 167.831C239.837 166.849 239.041 166.053 238.059 166.053H235.647C234.665 166.053 233.869 166.849 233.869 167.831C233.869 168.813 234.665 169.609 235.647 169.609Z" fill="white"/>
<path d="M245.297 169.609H247.71C248.692 169.609 249.488 168.813 249.488 167.831C249.488 166.849 248.692 166.053 247.71 166.053H245.297C244.315 166.053 243.519 166.849 243.519 167.831C243.519 168.813 244.315 169.609 245.297 169.609Z" fill="white"/>
<path d="M254.948 169.609H257.36C258.342 169.609 259.138 168.813 259.138 167.831C259.138 166.849 258.342 166.053 257.36 166.053H254.948C253.966 166.053 253.17 166.849 253.17 167.831C253.17 168.813 253.966 169.609 254.948 169.609V169.609Z" fill="white"/>
<path d="M264.598 169.609H267.01C267.992 169.609 268.788 168.813 268.788 167.831C268.788 166.849 267.992 166.053 267.01 166.053H264.598C263.616 166.053 262.82 166.849 262.82 167.831C262.82 168.813 263.616 169.609 264.598 169.609Z" fill="white"/>
<path d="M274.248 169.609H276.661C277.643 169.609 278.439 168.813 278.439 167.831C278.439 166.849 277.643 166.053 276.661 166.053H274.248C273.266 166.053 272.47 166.849 272.47 167.831C272.47 168.813 273.266 169.609 274.248 169.609Z" fill="white"/>
<path d="M283.673 169.609H286.086C287.068 169.609 287.864 168.813 287.864 167.831C287.864 166.849 287.068 166.053 286.086 166.053H283.673C282.691 166.053 281.895 166.849 281.895 167.831C281.895 168.813 282.691 169.609 283.673 169.609Z" fill="white"/>
<path d="M228.409 172.417H225.997C225.015 172.417 224.219 173.213 224.219 174.195C224.219 175.177 225.015 175.973 225.997 175.973H228.409C229.391 175.973 230.187 175.177 230.187 174.195C230.187 173.213 229.391 172.417 228.409 172.417Z" fill="white"/>
<path d="M235.647 175.973H238.059C239.041 175.973 239.837 175.177 239.837 174.195C239.837 173.213 239.041 172.417 238.059 172.417H235.647C234.665 172.417 233.869 173.213 233.869 174.195C233.869 175.177 234.665 175.973 235.647 175.973Z" fill="white"/>
<path d="M245.297 175.973H247.71C248.692 175.973 249.488 175.177 249.488 174.195C249.488 173.213 248.692 172.417 247.71 172.417H245.297C244.315 172.417 243.519 173.213 243.519 174.195C243.519 175.177 244.315 175.973 245.297 175.973Z" fill="white"/>
<path d="M254.948 175.973H257.36C258.342 175.973 259.138 175.177 259.138 174.195C259.138 173.213 258.342 172.417 257.36 172.417H254.948C253.966 172.417 253.17 173.213 253.17 174.195C253.17 175.177 253.966 175.973 254.948 175.973V175.973Z" fill="white"/>
<path d="M264.598 175.973H267.01C267.992 175.973 268.788 175.177 268.788 174.195C268.788 173.213 267.992 172.417 267.01 172.417H264.598C263.616 172.417 262.82 173.213 262.82 174.195C262.82 175.177 263.616 175.973 264.598 175.973Z" fill="white"/>
<path d="M274.248 175.973H276.661C277.643 175.973 278.439 175.177 278.439 174.195C278.439 173.213 277.643 172.417 276.661 172.417H274.248C273.266 172.417 272.47 173.213 272.47 174.195C272.47 175.177 273.266 175.973 274.248 175.973Z" fill="white"/>
<path d="M283.673 175.973H286.086C287.068 175.973 287.864 175.177 287.864 174.195C287.864 173.213 287.068 172.417 286.086 172.417H283.673C282.691 172.417 281.895 173.213 281.895 174.195C281.895 175.177 282.691 175.973 283.673 175.973Z" fill="white"/>
<path d="M125.708 229.207L126.543 232.034C126.982 233.548 127.91 234.305 129.326 234.305H129.736C129.932 234.305 130.029 234.656 130.029 235.359V235.711C130.029 236.57 129.932 237 129.736 237H129.487C128.101 237 127.212 236.741 126.821 236.224C126.265 240.862 122.891 243.514 116.699 244.178L116.084 241.688C121.621 241.131 124.385 238.821 124.375 234.759C124.375 233.294 123.989 231.736 123.218 230.086L125.708 229.207ZM130.601 237H129.487C128.921 237 128.638 236.57 128.638 235.711V235.433C128.638 234.681 128.921 234.305 129.487 234.305H130.601C132.163 234.305 133.223 234.148 133.779 233.836C134.609 233.348 135.024 232.327 135.024 230.774C135.024 229.612 134.844 228.318 134.482 226.893L136.87 226.292C137.349 227.815 137.588 229.295 137.588 230.73C137.588 233.123 136.904 234.837 135.537 235.872C134.541 236.624 132.896 237 130.601 237ZM134.263 221.692L136.401 219.554L138.54 221.707L136.416 223.831L134.263 221.692ZM129.502 221.692L131.626 219.554L133.779 221.707L131.641 223.831L129.502 221.692ZM146.831 229.207L147.666 232.034C148.105 233.548 149.033 234.305 150.449 234.305H150.859C151.055 234.305 151.152 234.656 151.152 235.359V235.711C151.152 236.57 151.055 237 150.859 237H150.61C149.224 237 148.335 236.741 147.944 236.224C147.388 240.862 144.014 243.514 137.822 244.178L137.207 241.688C142.744 241.131 145.508 238.821 145.498 234.759C145.498 233.294 145.112 231.736 144.341 230.086L146.831 229.207ZM151.724 237H150.61C150.044 237 149.761 236.57 149.761 235.711V235.433C149.761 234.681 150.044 234.305 150.61 234.305H151.724C153.286 234.305 154.346 234.148 154.902 233.836C155.732 233.348 156.147 232.327 156.147 230.774C156.147 229.612 155.967 228.318 155.605 226.893L157.993 226.292C158.472 227.815 158.711 229.295 158.711 230.73C158.711 233.123 158.027 234.837 156.66 235.872C155.664 236.624 154.019 237 151.724 237ZM152.5 241.644L154.639 239.505L156.777 241.658L154.653 243.782L152.5 241.644ZM178.867 241.102C183.516 241.082 185.835 238.919 185.825 234.612C185.825 232.737 185.386 230.896 184.507 229.09L187.041 228.196C187.998 230.579 188.477 232.723 188.477 234.627C188.467 236.443 188.135 238.011 187.48 239.329C186.025 242.239 183.11 243.689 178.735 243.68C172.847 243.68 169.897 240.979 169.888 235.579C169.888 233.499 170.376 231.272 171.353 228.899L173.682 229.852C172.861 231.922 172.456 233.841 172.466 235.608C172.485 239.28 174.619 241.111 178.867 241.102ZM176.729 226.937L178.867 224.798L181.006 226.951L178.882 229.075L176.729 226.937ZM198.628 235.711C198.638 236.57 198.54 237 198.335 237H198.027C194.238 237 192.344 234.881 192.344 230.643V215.936H194.893V230.613C194.893 233.074 195.952 234.305 198.071 234.305H198.335C198.53 234.305 198.628 234.681 198.628 235.433V235.711ZM198.145 237C197.578 237 197.295 236.57 197.295 235.711V235.433C197.295 234.681 197.578 234.305 198.145 234.305H199.023C202.246 234.305 206.23 233.079 210.977 230.628L212.061 230.071C211.807 230.003 210.752 229.593 208.896 228.841C206.982 228.069 205.679 227.684 204.985 227.684C203.882 227.684 202.974 228.143 202.261 229.061L201.851 229.588L199.595 228.475L199.829 228.064C201.06 226.043 202.783 225.027 205 225.018C206.24 225.018 207.725 225.438 209.453 226.277C212.5 227.762 214.858 228.538 216.528 228.606L216.499 231.155C215.376 231.253 213.306 232.098 210.288 233.689C206.099 235.896 202.285 237 198.848 237H198.145ZM220.19 215.936H222.725V236.985H220.19V215.936ZM232.319 229.207L233.154 232.034C233.594 233.548 234.521 234.305 235.938 234.305H236.348C236.543 234.305 236.641 234.656 236.641 235.359V235.711C236.641 236.57 236.543 237 236.348 237H236.099C234.712 237 233.823 236.741 233.433 236.224C232.876 240.862 229.502 243.514 223.311 244.178L222.695 241.688C228.232 241.131 230.996 238.821 230.986 234.759C230.986 233.294 230.601 231.736 229.829 230.086L232.319 229.207ZM243.467 237H236.099C235.532 237 235.249 236.57 235.249 235.711V235.433C235.249 234.681 235.532 234.305 236.099 234.305H238.53H238.56L238.574 234.275C238.672 234.109 239.019 233.567 239.614 232.649V232.635V232.62V215.921H242.148V228.899V229.031L242.236 228.929C244.297 226.341 246.406 225.047 248.564 225.047C250.625 225.037 252.202 225.813 253.296 227.376C253.589 227.796 253.809 228.255 253.955 228.753C254.102 229.241 254.175 229.769 254.175 230.335C254.175 234.778 250.605 237 243.467 237ZM241.372 234.29H243.54C246.196 234.29 248.149 234.017 249.399 233.47C250.806 232.854 251.509 231.907 251.509 230.628C251.509 229.798 251.226 229.124 250.659 228.606C250.376 228.353 250.054 228.162 249.692 228.035C249.341 227.908 248.955 227.845 248.535 227.845C246.387 227.874 243.984 230.003 241.328 234.231L241.284 234.29H241.372ZM272.485 233.982C269.438 235.662 267.915 237.625 267.915 239.871C267.905 242.713 269.976 244.139 274.126 244.148C275.757 244.148 277.437 243.792 279.165 243.079L279.692 245.701C278.062 246.434 276.152 246.795 273.965 246.785C271.475 246.775 269.536 246.302 268.149 245.364C266.333 244.134 265.42 242.303 265.41 239.871C265.41 236.795 266.953 234.28 270.039 232.327C267.227 230.687 265.82 229.114 265.82 227.61C265.82 226.585 266.606 225.73 268.179 225.047C269.253 224.578 270.723 224.344 272.588 224.344C274.521 224.344 276.011 224.568 277.056 225.018C278.511 225.633 279.238 226.478 279.238 227.552C279.238 228.919 277.69 230.569 274.595 232.503C276.118 233.704 278.247 234.305 280.981 234.305H281.392C281.587 234.305 281.685 234.681 281.685 235.433V235.711C281.685 236.57 281.587 237 281.392 237H280.981C278.003 237 275.171 235.994 272.485 233.982ZM272.5 230.774C275.215 229.31 276.567 228.304 276.558 227.757C276.558 227.259 275.229 227.01 272.573 227.01C269.917 227.01 268.589 227.317 268.589 227.933C268.589 228.401 269.893 229.349 272.5 230.774ZM290.547 234.7C291.914 234.7 292.598 234.031 292.598 232.693C292.598 232.059 292.5 231.512 292.305 231.053C291.836 229.988 291.055 229.456 289.961 229.456C288.613 229.456 287.583 230.467 286.87 232.488C288.149 233.963 289.375 234.7 290.547 234.7ZM285.596 234.905C284.395 236.302 283.027 237 281.494 237H281.187C280.63 237 280.352 236.57 280.352 235.711V235.433C280.352 234.681 280.63 234.305 281.187 234.305H281.421C282.212 234.305 282.993 233.846 283.765 232.928C284.097 232.518 284.468 231.854 284.878 230.936C286.157 228.104 287.832 226.683 289.902 226.673C291.514 226.673 292.783 227.254 293.711 228.416C294.639 229.568 295.103 230.921 295.103 232.474C295.103 233.987 294.775 235.13 294.121 235.901C293.311 236.849 292.188 237.322 290.752 237.322C288.857 237.322 287.139 236.517 285.596 234.905ZM305.298 235.711C305.308 236.57 305.21 237 305.005 237H304.697C300.908 237 299.014 234.881 299.014 230.643V215.936H301.562V230.613C301.562 233.074 302.622 234.305 304.741 234.305H305.005C305.2 234.305 305.298 234.681 305.298 235.433V235.711ZM313.12 241.644L315.259 239.505L317.397 241.658L315.273 243.782L313.12 241.644ZM304.8 237C304.233 237 303.95 236.57 303.95 235.711V235.433C303.95 234.681 304.233 234.305 304.8 234.305H305.679C308.901 234.305 312.886 233.079 317.632 230.628L318.716 230.071C318.462 230.003 317.407 229.593 315.552 228.841C313.638 228.069 312.334 227.684 311.641 227.684C310.537 227.684 309.629 228.143 308.916 229.061L308.506 229.588L306.25 228.475L306.484 228.064C307.715 226.043 309.438 225.027 311.655 225.018C312.896 225.018 314.38 225.438 316.108 226.277C319.155 227.762 321.514 228.538 323.184 228.606L323.154 231.155C322.031 231.253 319.961 232.098 316.943 233.689C312.754 235.896 308.94 237 305.503 237H304.8ZM339.473 227.566C337.617 229.188 336.689 230.618 336.689 231.858C336.689 233.489 337.681 234.305 339.663 234.305C341.675 234.305 342.676 233.484 342.666 231.844C342.666 230.691 341.602 229.266 339.473 227.566ZM338.462 223.011C342.935 226.263 345.171 229.236 345.171 231.932C345.171 233.777 344.365 235.198 342.754 236.194C341.982 236.683 340.957 236.932 339.678 236.941C338.496 236.941 337.485 236.731 336.646 236.312C335.005 235.491 334.185 234.031 334.185 231.932C334.185 229.92 335.342 227.786 337.656 225.53L336.997 224.959L338.462 223.011ZM353.359 229.207C354.18 231.072 354.59 232.869 354.59 234.598C354.59 240.262 351.172 243.455 344.336 244.178L343.721 241.688C349.258 241.131 352.021 238.826 352.012 234.773C352.012 233.279 351.631 231.717 350.869 230.086L353.359 229.207ZM365.239 234.041C365.024 230.789 364.077 229.163 362.397 229.163C361.46 229.163 360.791 229.749 360.391 230.921C360.215 231.448 360.127 231.946 360.127 232.415C360.127 233.763 361.089 234.432 363.013 234.422C363.726 234.412 364.468 234.285 365.239 234.041ZM362.998 237.029C359.434 237.029 357.651 235.564 357.651 232.635C357.651 231.453 357.905 230.335 358.413 229.28C359.331 227.356 360.718 226.395 362.573 226.395C364.565 226.395 365.991 227.513 366.851 229.749C367.446 231.292 367.739 233.025 367.729 234.949C367.69 240.418 364.331 243.494 357.651 244.178L357.036 241.688C361.646 241.219 364.355 239.593 365.166 236.81C364.004 236.956 363.281 237.029 362.998 237.029ZM370.659 233.909C371.89 234.163 373.066 234.29 374.189 234.29C377.803 234.29 379.609 233.406 379.609 231.639C379.609 229.598 377.583 227.303 373.53 224.754L374.995 222.527C379.829 225.408 382.246 228.431 382.246 231.595C382.246 235.169 379.624 236.961 374.38 236.971C372.944 236.971 371.704 236.854 370.659 236.619V233.909Z" fill="white"/>
</g>
<defs>
<linearGradient id="paint0_linear" x1="0" y1="144.5" x2="490.234" y2="144.5" gradientUnits="userSpaceOnUse">
<stop stop-color="#8E2DE2"/>
<stop offset="1" stop-color="#4A00E0"/>
</linearGradient>
<clipPath id="clip0">
<rect width="500" height="289" fill="white"/>
</clipPath>
</defs>
</svg>
