<svg width="500" height="289" viewBox="0 0 500 289" fill="none" xmlns="http://www.w3.org/2000/svg">
<g clip-path="url(#clip0)">
<rect width="500" height="289" fill="url(#paint0_linear)"/>
<g clip-path="url(#clip1)">
<path d="M292.305 67.7188H263.507C262.17 67.7188 261.086 68.8033 261.086 70.1406C261.086 71.478 262.17 72.5625 263.507 72.5625H292.305C293.642 72.5625 294.727 71.478 294.727 70.1406C294.727 68.8033 293.642 67.7188 292.305 67.7188Z" fill="white"/>
<path d="M243.879 68.4284C243.429 67.9779 242.804 67.7188 242.167 67.7188C241.528 67.7188 240.903 67.9776 240.452 68.4284C240.002 68.8791 239.745 69.5037 239.745 70.1406C239.745 70.7776 240.002 71.4024 240.452 71.8526C240.905 72.3034 241.528 72.5625 242.167 72.5625C242.804 72.5625 243.429 72.3034 243.879 71.8526C244.33 71.4024 244.589 70.7776 244.589 70.1406C244.589 69.5037 244.33 68.8788 243.879 68.4284Z" fill="white"/>
<path d="M234.669 68.4284C234.218 67.9779 233.594 67.7188 232.957 67.7188C232.32 67.7188 231.695 67.9776 231.244 68.4284C230.794 68.8791 230.535 69.5037 230.535 70.1406C230.535 70.7776 230.794 71.4024 231.244 71.8526C231.695 72.3034 232.32 72.5625 232.957 72.5625C233.594 72.5625 234.218 72.3034 234.669 71.8526C235.119 71.4024 235.379 70.7776 235.379 70.1406C235.379 69.5037 235.119 68.8788 234.669 68.4284Z" fill="white"/>
<path d="M253.087 68.4284C252.637 67.9779 252.012 67.7188 251.375 67.7188C250.738 67.7188 250.113 67.9776 249.663 68.4284C249.212 68.8788 248.953 69.5037 248.953 70.1406C248.953 70.7776 249.212 71.4024 249.663 71.8526C250.113 72.3034 250.738 72.5625 251.375 72.5625C252.012 72.5625 252.637 72.3034 253.087 71.8526C253.538 71.4024 253.797 70.7776 253.797 70.1406C253.797 69.5037 253.538 68.8788 253.087 68.4284Z" fill="white"/>
<path d="M270.508 89.0419H260.578C259.241 89.0419 258.156 90.1264 258.156 91.4638C258.156 92.8011 259.241 93.8857 260.578 93.8857H270.508C271.845 93.8857 272.93 92.8011 272.93 91.4638C272.93 90.1264 271.845 89.0419 270.508 89.0419Z" fill="white"/>
<path d="M290.311 89.0419H280.401C279.063 89.0419 277.979 90.1264 277.979 91.4638C277.979 92.8011 279.063 93.8857 280.401 93.8857H290.311C291.648 93.8857 292.732 92.8011 292.732 91.4638C292.732 90.1264 291.648 89.0419 290.311 89.0419Z" fill="white"/>
<path d="M290.311 112.284C290.31 112.284 290.31 112.284 290.31 112.284L287.732 112.285C286.394 112.285 285.31 113.37 285.311 114.708C285.311 116.045 286.396 117.129 287.733 117.129C287.733 117.129 287.733 117.129 287.734 117.129L290.311 117.128C291.649 117.127 292.733 116.043 292.732 114.705C292.732 113.367 291.648 112.284 290.311 112.284Z" fill="white"/>
<path d="M278.984 112.29C278.984 112.29 278.984 112.29 278.983 112.29L269.623 112.295C268.285 112.296 267.201 113.381 267.202 114.718C267.203 116.055 268.287 117.139 269.624 117.139C269.624 117.139 269.625 117.139 269.625 117.139L278.986 117.134C280.323 117.133 281.407 116.048 281.406 114.711C281.406 113.374 280.321 112.29 278.984 112.29Z" fill="white"/>
<path d="M281.648 100.666H273.553C272.215 100.666 271.131 101.751 271.131 103.088C271.131 104.426 272.215 105.51 273.553 105.51H281.648C282.986 105.51 284.07 104.426 284.07 103.088C284.07 101.751 282.986 100.666 281.648 100.666Z" fill="white"/>
<path d="M292.024 101.376C291.571 100.925 290.948 100.666 290.311 100.666C289.672 100.666 289.05 100.925 288.597 101.376C288.146 101.826 287.89 102.451 287.89 103.088C287.89 103.725 288.146 104.35 288.597 104.8C289.05 105.253 289.672 105.51 290.311 105.51C290.948 105.51 291.571 105.253 292.024 104.8C292.474 104.35 292.733 103.725 292.733 103.088C292.733 102.451 292.474 101.826 292.024 101.376Z" fill="white"/>
<path d="M293.29 178.866C292.84 178.415 292.215 178.156 291.578 178.156C290.941 178.156 290.316 178.415 289.866 178.866C289.415 179.316 289.156 179.941 289.156 180.578C289.156 181.215 289.415 181.84 289.866 182.29C290.316 182.741 290.941 183 291.578 183C292.215 183 292.84 182.741 293.29 182.29C293.741 181.84 294 181.215 294 180.578C294 179.941 293.741 179.316 293.29 178.866Z" fill="white"/>
<path d="M297.572 125.965H291.094V66.75C291.094 61.1412 286.531 56.5781 280.922 56.5781H216.984C211.376 56.5781 206.812 61.1412 206.812 66.75V96.3143C195.231 100.598 186.953 111.753 186.953 124.805C186.953 141.548 200.575 155.169 217.318 155.169C228.908 155.169 239.001 148.641 244.116 139.069C244.114 139.161 244.109 139.253 244.109 139.346V167.197C244.109 174.576 250.112 180.578 257.49 180.578H268.807C270.145 180.578 271.229 179.494 271.229 178.156C271.229 176.819 270.145 175.734 268.807 175.734H257.49C252.783 175.734 248.953 171.905 248.953 167.197V139.346C248.953 134.638 252.783 130.809 257.49 130.809H261.547C262.884 130.809 263.969 129.724 263.969 128.387V125.676L269.721 130.278C270.151 130.622 270.685 130.809 271.234 130.809H297.572C302.28 130.809 306.109 134.638 306.109 139.346V167.197C306.109 171.905 302.28 175.734 297.572 175.734H287.715C286.377 175.734 285.293 176.819 285.293 178.156C285.293 179.494 286.377 180.578 287.715 180.578H297.572C304.951 180.578 310.953 174.576 310.953 167.197V139.346C310.953 131.967 304.951 125.965 297.572 125.965ZM240.166 109.757C239.407 110.516 239.238 111.684 239.751 112.627C241.771 116.339 242.838 120.55 242.838 124.805C242.838 138.877 231.39 150.326 217.318 150.326C203.245 150.326 191.797 138.877 191.797 124.805C191.797 110.732 203.245 99.2838 217.318 99.2838C223.232 99.2838 228.996 101.353 233.549 105.11C233.983 105.468 234.528 105.663 235.09 105.663H244.26L240.166 109.757ZM286.25 125.965H272.084L263.06 118.745C262.333 118.164 261.337 118.051 260.498 118.454C259.659 118.857 259.125 119.706 259.125 120.637V125.965H257.49C253.27 125.965 249.502 127.931 247.047 130.993C247.463 128.995 247.682 126.925 247.682 124.805C247.682 120.357 246.7 115.947 244.83 111.943L251.819 104.954C252.512 104.262 252.719 103.22 252.344 102.315C251.969 101.41 251.086 100.82 250.106 100.82H235.94C230.636 96.6999 224.057 94.4403 217.318 94.4403C215.383 94.4403 213.491 94.6243 211.656 94.9719V78.8594H286.25V125.965ZM286.25 74.0156H211.656V66.75C211.656 63.812 214.046 61.4219 216.984 61.4219H280.922C283.86 61.4219 286.25 63.812 286.25 66.75V74.0156Z" fill="white"/>
<path d="M276.084 147.943C274.746 147.943 273.662 149.028 273.662 150.365V153.271H270.774V150.365C270.774 149.028 269.69 147.943 268.353 147.943C267.015 147.943 265.931 149.028 265.931 150.365V161.021C265.931 162.359 267.015 163.443 268.353 163.443C269.69 163.443 270.774 162.359 270.774 161.021V158.115H273.662V161.021C273.662 162.359 274.746 163.443 276.084 163.443C277.421 163.443 278.506 162.359 278.506 161.021V150.365C278.506 149.028 277.421 147.943 276.084 147.943Z" fill="white"/>
<path d="M315.892 158.6H313.738V150.365C313.738 149.028 312.654 147.943 311.316 147.943C309.979 147.943 308.895 149.028 308.895 150.365V161.021C308.895 162.359 309.979 163.443 311.316 163.443H315.892C317.229 163.443 318.314 162.359 318.314 161.021C318.314 159.684 317.229 158.6 315.892 158.6Z" fill="white"/>
<path d="M289.173 147.943H282.854C281.516 147.943 280.432 149.028 280.432 150.365C280.432 151.703 281.516 152.787 282.854 152.787H283.592V161.021C283.592 162.359 284.676 163.443 286.013 163.443C287.351 163.443 288.435 162.359 288.435 161.021V152.787H289.173C290.511 152.787 291.595 151.703 291.595 150.365C291.595 149.028 290.511 147.943 289.173 147.943Z" fill="white"/>
<path d="M304.807 148.128C303.903 147.754 302.861 147.96 302.168 148.653L299.809 151.012L297.449 148.653C296.757 147.96 295.714 147.753 294.81 148.128C293.905 148.503 293.315 149.386 293.315 150.365V161.021C293.315 162.359 294.399 163.443 295.737 163.443C297.074 163.443 298.159 162.359 298.159 161.021V156.21C298.606 156.627 299.195 156.859 299.809 156.859C300.422 156.859 301.011 156.627 301.459 156.21V161.021C301.459 162.359 302.543 163.443 303.881 163.443C305.218 163.443 306.302 162.359 306.302 161.021V150.365C306.302 149.386 305.712 148.503 304.807 148.128Z" fill="white"/>
<path d="M221.635 130.064C220.07 131.629 217.524 131.629 215.96 130.064C215.202 129.306 214.784 128.298 214.784 127.226C214.784 126.154 215.202 125.147 215.96 124.389C216.718 123.631 217.725 123.214 218.797 123.214C219.869 123.214 220.877 123.631 221.635 124.389C222.581 125.335 224.115 125.335 225.06 124.389C226.006 123.443 226.006 121.91 225.06 120.964C223.387 119.291 221.163 118.37 218.797 118.37C216.432 118.37 214.207 119.291 212.535 120.964C210.862 122.637 209.941 124.861 209.941 127.227C209.941 129.592 210.862 131.816 212.535 133.489C214.261 135.216 216.529 136.079 218.797 136.079C221.065 136.079 223.333 135.216 225.06 133.489C226.006 132.544 226.006 131.01 225.06 130.064C224.115 129.119 222.581 129.119 221.635 130.064Z" fill="white"/>
<path d="M232.728 124.805C232.289 124.805 231.932 124.448 231.932 124.009C231.932 123.571 232.289 123.214 232.728 123.214H235.945C237.283 123.214 238.367 122.129 238.367 120.792C238.367 119.454 237.283 118.37 235.945 118.37H232.728C229.618 118.37 227.088 120.899 227.088 124.009C227.088 127.119 229.618 129.649 232.728 129.649C233.166 129.649 233.523 130.005 233.523 130.444C233.523 130.883 233.166 131.24 232.728 131.24H229.51C228.172 131.24 227.088 132.324 227.088 133.662C227.088 134.999 228.172 136.083 229.51 136.083H232.728C235.837 136.083 238.367 133.554 238.367 130.444C238.367 127.334 235.837 124.805 232.728 124.805Z" fill="white"/>
<path d="M245.726 124.805C245.287 124.805 244.93 124.448 244.93 124.009C244.93 123.571 245.287 123.214 245.726 123.214H248.943C250.281 123.214 251.365 122.129 251.365 120.792C251.365 119.454 250.281 118.37 248.943 118.37H245.726C242.617 118.37 240.087 120.899 240.087 124.009C240.087 127.119 242.617 129.649 245.726 129.649C246.165 129.649 246.522 130.005 246.522 130.444C246.522 130.883 246.165 131.24 245.726 131.24H242.509C241.171 131.24 240.087 132.324 240.087 133.662C240.087 134.999 241.171 136.083 242.509 136.083H245.726C248.835 136.083 251.365 133.554 251.365 130.444C251.365 127.334 248.835 124.805 245.726 124.805Z" fill="white"/>
</g>
<path d="M99.7363 237H96.9092V227.142H86.1572V237H83.3447V215.672H86.1572V224.842H96.9092V215.672H99.7363V237ZM119.468 217.986H112.612V237H109.814V217.986H102.974V215.672H119.468V217.986ZM126.265 215.672L133.237 233.074L140.21 215.672H143.857V237H141.045V228.694L141.309 219.729L134.307 237H132.153L125.166 219.773L125.444 228.694V237H122.632V215.672H126.265ZM151.65 234.7H161.758V237H148.823V215.672H151.65V234.7ZM172.173 231.272C172.173 230.628 172.271 230.047 172.466 229.529C172.671 229.002 172.954 228.509 173.315 228.05C173.687 227.581 174.126 227.137 174.634 226.717C175.142 226.297 175.698 225.872 176.304 225.442C175.942 225.003 175.615 224.583 175.322 224.183C175.029 223.782 174.775 223.387 174.561 222.996C174.355 222.596 174.194 222.195 174.077 221.795C173.97 221.395 173.916 220.984 173.916 220.564C173.916 219.734 174.043 218.997 174.297 218.353C174.551 217.708 174.912 217.166 175.381 216.727C175.85 216.287 176.411 215.955 177.065 215.73C177.72 215.496 178.447 215.379 179.248 215.379C180.029 215.379 180.732 215.501 181.357 215.745C181.982 215.989 182.515 216.316 182.954 216.727C183.394 217.137 183.73 217.615 183.965 218.162C184.199 218.709 184.316 219.285 184.316 219.891C184.316 220.408 184.243 220.882 184.097 221.312C183.96 221.731 183.765 222.132 183.511 222.513C183.257 222.884 182.949 223.235 182.588 223.567C182.236 223.89 181.851 224.212 181.431 224.534L179.819 225.721L184.565 231.39C184.878 230.794 185.122 230.145 185.298 229.441C185.474 228.729 185.562 227.967 185.562 227.156H188.008C188.008 228.377 187.861 229.505 187.568 230.54C187.275 231.575 186.821 232.513 186.206 233.353L189.253 237H186.001L184.58 235.315C184.209 235.647 183.804 235.94 183.364 236.194C182.925 236.438 182.466 236.644 181.987 236.81C181.519 236.966 181.035 237.083 180.537 237.161C180.039 237.249 179.551 237.293 179.072 237.293C178.008 237.293 177.046 237.146 176.187 236.854C175.337 236.551 174.614 236.136 174.019 235.608C173.423 235.071 172.964 234.437 172.642 233.704C172.329 232.962 172.173 232.151 172.173 231.272ZM179.072 235.081C179.775 235.081 180.464 234.939 181.138 234.656C181.812 234.373 182.437 233.968 183.013 233.44L177.812 227.215L177.197 227.669C176.67 228.06 176.25 228.44 175.938 228.812C175.635 229.173 175.405 229.51 175.249 229.822C175.093 230.135 174.99 230.418 174.941 230.672C174.902 230.916 174.883 231.116 174.883 231.272C174.883 231.79 174.966 232.283 175.132 232.752C175.308 233.211 175.566 233.616 175.908 233.968C176.26 234.31 176.699 234.583 177.227 234.788C177.754 234.983 178.369 235.081 179.072 235.081ZM176.626 220.477C176.626 221.014 176.782 221.575 177.095 222.161C177.407 222.737 177.827 223.348 178.354 223.992L179.893 222.908C180.195 222.703 180.464 222.498 180.698 222.293C180.942 222.088 181.147 221.868 181.313 221.634C181.479 221.399 181.602 221.146 181.68 220.872C181.768 220.589 181.812 220.262 181.812 219.891C181.812 219.598 181.753 219.314 181.636 219.041C181.528 218.768 181.362 218.528 181.138 218.323C180.923 218.108 180.654 217.938 180.332 217.811C180.01 217.674 179.644 217.605 179.233 217.605C178.804 217.605 178.428 217.684 178.105 217.84C177.783 217.986 177.51 218.191 177.285 218.455C177.07 218.719 176.904 219.026 176.787 219.378C176.68 219.72 176.626 220.086 176.626 220.477ZM215.723 230.232C215.605 231.238 215.356 232.176 214.976 233.045C214.604 233.904 214.087 234.651 213.423 235.286C212.759 235.911 211.948 236.404 210.991 236.766C210.034 237.117 208.916 237.293 207.637 237.293C206.377 237.293 205.234 237.059 204.209 236.59C203.184 236.121 202.305 235.457 201.572 234.598C200.85 233.729 200.288 232.688 199.888 231.478C199.497 230.267 199.302 228.914 199.302 227.42V225.281C199.302 223.787 199.502 222.435 199.902 221.224C200.303 220.003 200.874 218.963 201.616 218.104C202.358 217.234 203.257 216.565 204.312 216.097C205.376 215.618 206.567 215.379 207.886 215.379C209.087 215.379 210.151 215.555 211.079 215.906C212.007 216.258 212.793 216.751 213.438 217.386C214.092 218.011 214.609 218.763 214.99 219.642C215.371 220.511 215.615 221.473 215.723 222.527H212.896C212.788 221.785 212.622 221.116 212.397 220.521C212.173 219.925 211.86 219.417 211.46 218.997C211.069 218.577 210.581 218.255 209.995 218.03C209.409 217.806 208.706 217.693 207.886 217.693C206.938 217.693 206.104 217.879 205.381 218.25C204.668 218.611 204.067 219.124 203.579 219.788C203.101 220.442 202.739 221.238 202.495 222.176C202.251 223.104 202.129 224.129 202.129 225.252V227.42C202.129 228.465 202.236 229.446 202.451 230.364C202.676 231.282 203.013 232.088 203.462 232.781C203.911 233.465 204.482 234.007 205.176 234.407C205.869 234.798 206.689 234.993 207.637 234.993C208.535 234.993 209.292 234.886 209.907 234.671C210.522 234.456 211.03 234.148 211.431 233.748C211.841 233.338 212.158 232.84 212.383 232.254C212.607 231.658 212.778 230.984 212.896 230.232H215.723ZM230.942 231.609C230.942 231.111 230.864 230.672 230.708 230.291C230.562 229.91 230.293 229.563 229.902 229.251C229.521 228.929 229.004 228.631 228.35 228.357C227.695 228.074 226.865 227.786 225.859 227.493C224.805 227.19 223.848 226.849 222.988 226.468C222.139 226.077 221.411 225.633 220.806 225.135C220.21 224.627 219.751 224.051 219.429 223.406C219.106 222.762 218.945 222.024 218.945 221.194C218.945 220.364 219.116 219.598 219.458 218.895C219.81 218.182 220.303 217.566 220.938 217.049C221.572 216.521 222.334 216.111 223.223 215.818C224.111 215.525 225.103 215.379 226.196 215.379C227.397 215.379 228.467 215.56 229.404 215.921C230.342 216.282 231.128 216.761 231.763 217.356C232.407 217.952 232.896 218.641 233.228 219.422C233.56 220.203 233.726 221.009 233.726 221.839H230.898C230.898 221.243 230.801 220.691 230.605 220.184C230.42 219.676 230.132 219.236 229.741 218.865C229.351 218.494 228.862 218.206 228.276 218.001C227.69 217.796 226.997 217.693 226.196 217.693C225.444 217.693 224.79 217.781 224.233 217.957C223.677 218.133 223.218 218.377 222.856 218.689C222.495 218.992 222.227 219.354 222.051 219.773C221.875 220.193 221.787 220.652 221.787 221.15C221.787 221.6 221.88 222.01 222.065 222.381C222.261 222.752 222.559 223.094 222.959 223.406C223.359 223.719 223.872 224.007 224.497 224.271C225.132 224.534 225.889 224.788 226.768 225.032C227.979 225.374 229.023 225.755 229.902 226.175C230.781 226.585 231.504 227.054 232.07 227.581C232.646 228.108 233.071 228.699 233.345 229.354C233.628 230.008 233.77 230.75 233.77 231.58C233.77 232.449 233.594 233.235 233.242 233.938C232.891 234.642 232.388 235.242 231.733 235.74C231.089 236.238 230.308 236.624 229.39 236.897C228.481 237.161 227.466 237.293 226.343 237.293C225.688 237.293 225.034 237.229 224.38 237.103C223.726 236.985 223.096 236.805 222.49 236.561C221.895 236.316 221.338 236.014 220.82 235.652C220.312 235.291 219.868 234.871 219.487 234.393C219.106 233.914 218.809 233.377 218.594 232.781C218.379 232.186 218.271 231.531 218.271 230.818H221.099C221.099 231.551 221.24 232.181 221.523 232.708C221.816 233.226 222.202 233.655 222.681 233.997C223.169 234.339 223.726 234.593 224.351 234.759C224.985 234.915 225.649 234.993 226.343 234.993C227.827 234.993 228.965 234.69 229.756 234.085C230.547 233.479 230.942 232.654 230.942 231.609ZM248.755 231.609C248.755 231.111 248.677 230.672 248.521 230.291C248.374 229.91 248.105 229.563 247.715 229.251C247.334 228.929 246.816 228.631 246.162 228.357C245.508 228.074 244.678 227.786 243.672 227.493C242.617 227.19 241.66 226.849 240.801 226.468C239.951 226.077 239.224 225.633 238.618 225.135C238.022 224.627 237.563 224.051 237.241 223.406C236.919 222.762 236.758 222.024 236.758 221.194C236.758 220.364 236.929 219.598 237.271 218.895C237.622 218.182 238.115 217.566 238.75 217.049C239.385 216.521 240.146 216.111 241.035 215.818C241.924 215.525 242.915 215.379 244.009 215.379C245.21 215.379 246.279 215.56 247.217 215.921C248.154 216.282 248.94 216.761 249.575 217.356C250.22 217.952 250.708 218.641 251.04 219.422C251.372 220.203 251.538 221.009 251.538 221.839H248.711C248.711 221.243 248.613 220.691 248.418 220.184C248.232 219.676 247.944 219.236 247.554 218.865C247.163 218.494 246.675 218.206 246.089 218.001C245.503 217.796 244.81 217.693 244.009 217.693C243.257 217.693 242.603 217.781 242.046 217.957C241.489 218.133 241.03 218.377 240.669 218.689C240.308 218.992 240.039 219.354 239.863 219.773C239.688 220.193 239.6 220.652 239.6 221.15C239.6 221.6 239.692 222.01 239.878 222.381C240.073 222.752 240.371 223.094 240.771 223.406C241.172 223.719 241.685 224.007 242.31 224.271C242.944 224.534 243.701 224.788 244.58 225.032C245.791 225.374 246.836 225.755 247.715 226.175C248.594 226.585 249.316 227.054 249.883 227.581C250.459 228.108 250.884 228.699 251.157 229.354C251.44 230.008 251.582 230.75 251.582 231.58C251.582 232.449 251.406 233.235 251.055 233.938C250.703 234.642 250.2 235.242 249.546 235.74C248.901 236.238 248.12 236.624 247.202 236.897C246.294 237.161 245.278 237.293 244.155 237.293C243.501 237.293 242.847 237.229 242.192 237.103C241.538 236.985 240.908 236.805 240.303 236.561C239.707 236.316 239.15 236.014 238.633 235.652C238.125 235.291 237.681 234.871 237.3 234.393C236.919 233.914 236.621 233.377 236.406 232.781C236.191 232.186 236.084 231.531 236.084 230.818H238.911C238.911 231.551 239.053 232.181 239.336 232.708C239.629 233.226 240.015 233.655 240.493 233.997C240.981 234.339 241.538 234.593 242.163 234.759C242.798 234.915 243.462 234.993 244.155 234.993C245.64 234.993 246.777 234.69 247.568 234.085C248.359 233.479 248.755 232.654 248.755 231.609ZM283.325 234.305C283.53 234.305 283.633 234.681 283.633 235.433V235.711C283.633 236.57 283.53 237 283.325 237H281.245H280.879C281.436 237.43 281.714 237.981 281.714 238.655C281.714 240.149 280.83 241.468 279.062 242.61C277.031 243.929 274.629 244.588 271.855 244.588C265.576 244.588 262.437 242.059 262.437 237C262.437 234.92 262.93 232.806 263.916 230.657L266.245 231.609C265.415 233.709 265 235.447 265 236.824C265 240.281 267.28 242.01 271.841 242.01C273.56 242.01 275.103 241.697 276.47 241.072C277.593 240.564 278.394 239.949 278.872 239.227C279.097 238.885 279.209 238.558 279.209 238.245C279.209 237.405 278.564 236.985 277.275 236.985H275.034C274.468 236.927 274.082 236.468 273.877 235.608C273.779 235.198 273.73 234.896 273.73 234.7C273.73 234.476 273.784 234.344 273.892 234.305H283.325ZM294.268 219.29L296.348 217.195L298.442 219.305L296.362 221.385L294.268 219.29ZM296.67 223.216L298.765 221.136L300.859 223.23L298.779 225.311L296.67 223.216ZM291.924 223.216L293.989 221.136L296.099 223.23L294.004 225.311L291.924 223.216ZM295.513 232.151C295.571 231.868 295.601 231.526 295.601 231.126C295.601 230.687 295.581 230.232 295.542 229.764L295.454 228.885L297.871 228.592L298.105 231.976C298.213 233.519 298.979 234.29 300.405 234.29C301.86 234.29 302.588 233.245 302.588 231.155C302.588 230.149 302.373 228.904 301.943 227.42L304.448 226.746C304.937 228.289 305.176 229.725 305.166 231.053C305.166 231.082 305.166 231.111 305.166 231.141C305.156 233.357 304.561 234.983 303.379 236.019C302.646 236.663 301.675 236.985 300.464 236.985C298.657 236.985 297.466 236.302 296.89 234.935C295.903 236.312 294.512 237 292.715 237C290.625 236.99 289.287 236.302 288.701 234.935C287.92 236.312 286.343 237 283.97 237H283.149C282.583 237 282.3 236.57 282.3 235.711V235.433C282.3 234.681 282.583 234.305 283.149 234.305H283.999C286.001 234.305 287.153 233.587 287.456 232.151C287.515 231.868 287.544 231.526 287.544 231.126C287.544 230.706 287.524 230.252 287.485 229.764L287.397 228.885L289.814 228.592L290.049 231.976C290.156 233.528 291.055 234.305 292.744 234.305C294.307 234.305 295.229 233.587 295.513 232.151ZM316.152 229.207C316.973 231.072 317.383 232.869 317.383 234.598C317.383 240.262 313.965 243.455 307.129 244.178L306.514 241.688C312.051 241.131 314.814 238.826 314.805 234.773C314.805 233.279 314.424 231.717 313.662 230.086L316.152 229.207ZM328.032 234.305C327.808 230.887 326.86 229.173 325.19 229.163C324.272 229.153 323.604 229.739 323.184 230.921C323.008 231.438 322.92 231.937 322.92 232.415C322.92 233.675 323.833 234.305 325.659 234.305C325.659 234.305 326.45 234.305 328.032 234.305ZM330.479 234.319C330.479 234.319 330.981 234.319 331.987 234.319C332.183 234.319 332.28 234.734 332.28 235.564V235.711C332.28 236.57 332.183 237 331.987 237L330.347 236.985C329.614 241.194 326.318 243.592 320.459 244.178L319.844 241.673C324.473 241.165 327.173 239.607 327.944 237C327.944 237 327.231 237 325.806 237C322.231 237 320.444 235.545 320.444 232.635C320.444 231.453 320.698 230.335 321.206 229.28C322.124 227.356 323.511 226.395 325.366 226.395C328.325 226.395 330.029 229.036 330.479 234.319ZM341.143 234.7C342.51 234.7 343.193 234.031 343.193 232.693C343.193 232.059 343.096 231.512 342.9 231.053C342.432 229.988 341.65 229.456 340.557 229.456C339.209 229.456 338.179 230.467 337.466 232.488C338.745 233.963 339.971 234.7 341.143 234.7ZM336.191 234.905C334.99 236.302 333.623 237 332.09 237H331.782C331.226 237 330.947 236.57 330.947 235.711V235.433C330.947 234.681 331.226 234.305 331.782 234.305H332.017C332.808 234.305 333.589 233.846 334.36 232.928C334.692 232.518 335.063 231.854 335.474 230.936C336.753 228.104 338.428 226.683 340.498 226.673C342.109 226.673 343.379 227.254 344.307 228.416C345.234 229.568 345.698 230.921 345.698 232.474C345.698 233.987 345.371 235.13 344.717 235.901C343.906 236.849 342.783 237.322 341.348 237.322C339.453 237.322 337.734 236.517 336.191 234.905ZM350.928 218.06H353.462V236.985H350.928V218.06ZM350.972 215.188C349.888 215.042 348.896 215.501 347.998 216.565L346.519 215.013C347.671 213.353 349.077 212.654 350.737 212.918L352.92 213.27C353.867 213.426 354.937 213.201 356.128 212.596L357.095 214.603C355.835 215.384 354.482 215.677 353.037 215.481L350.972 215.188ZM372.256 227.566C370.4 229.188 369.473 230.618 369.473 231.858C369.473 233.489 370.464 234.305 372.446 234.305C374.458 234.305 375.459 233.484 375.449 231.844C375.449 230.691 374.385 229.266 372.256 227.566ZM371.245 223.011C375.718 226.263 377.954 229.236 377.954 231.932C377.954 233.777 377.148 235.198 375.537 236.194C374.766 236.683 373.74 236.932 372.461 236.941C371.279 236.941 370.269 236.731 369.429 236.312C367.788 235.491 366.968 234.031 366.968 231.932C366.968 229.92 368.125 227.786 370.439 225.53L369.78 224.959L371.245 223.011ZM388.75 229.207C389.57 231.072 389.98 232.869 389.98 234.598C389.98 240.262 386.562 243.455 379.727 244.178L379.111 241.688C384.648 241.131 387.412 238.826 387.402 234.773C387.402 233.279 387.021 231.717 386.26 230.086L388.75 229.207ZM400.63 234.041C400.415 230.789 399.468 229.163 397.788 229.163C396.851 229.163 396.182 229.749 395.781 230.921C395.605 231.448 395.518 231.946 395.518 232.415C395.518 233.763 396.479 234.432 398.403 234.422C399.116 234.412 399.858 234.285 400.63 234.041ZM398.389 237.029C394.824 237.029 393.042 235.564 393.042 232.635C393.042 231.453 393.296 230.335 393.804 229.28C394.722 227.356 396.108 226.395 397.964 226.395C399.956 226.395 401.382 227.513 402.241 229.749C402.837 231.292 403.13 233.025 403.12 234.949C403.081 240.418 399.722 243.494 393.042 244.178L392.427 241.688C397.036 241.219 399.746 239.593 400.557 236.81C399.395 236.956 398.672 237.029 398.389 237.029ZM406.05 233.909C407.28 234.163 408.457 234.29 409.58 234.29C413.193 234.29 415 233.406 415 231.639C415 229.598 412.974 227.303 408.921 224.754L410.386 222.527C415.22 225.408 417.637 228.431 417.637 231.595C417.637 235.169 415.015 236.961 409.771 236.971C408.335 236.971 407.095 236.854 406.05 236.619V233.909Z" fill="white"/>
</g>
<defs>
<linearGradient id="paint0_linear" x1="0" y1="144.5" x2="490.234" y2="144.5" gradientUnits="userSpaceOnUse">
<stop stop-color="#283048"/>
<stop offset="1" stop-color="#859398"/>
</linearGradient>
<clipPath id="clip0">
<rect width="500" height="289" fill="white"/>
</clipPath>
<clipPath id="clip1">
<rect width="124" height="124" fill="white" transform="translate(201 59)"/>
</clipPath>
</defs>
</svg>
