<svg width="500" height="289" viewBox="0 0 500 289" fill="none" xmlns="http://www.w3.org/2000/svg">
<g clip-path="url(#clip0)">
<rect width="500" height="289" fill="url(#paint0_linear)"/>
<path d="M196.741 75.4668C196.741 78.7382 199.41 81.3994 202.69 81.3994C205.97 81.3994 208.639 78.7382 208.639 75.4668C208.639 72.1954 205.97 69.5342 202.69 69.5342C199.41 69.5342 196.741 72.1954 196.741 75.4668V75.4668ZM204.683 75.4668C204.683 76.5573 203.789 77.4443 202.69 77.4443C201.591 77.4443 200.696 76.5573 200.696 75.4668C200.696 74.3762 201.591 73.4893 202.69 73.4893C203.789 73.4893 204.683 74.3762 204.683 75.4668Z" fill="white"/>
<path d="M225.847 75.4668C225.847 72.1954 223.178 69.5342 219.898 69.5342C216.618 69.5342 213.949 72.1954 213.949 75.4668C213.949 78.7382 216.618 81.3994 219.898 81.3994C223.178 81.3994 225.847 78.7382 225.847 75.4668ZM217.905 75.4668C217.905 74.3762 218.799 73.4893 219.898 73.4893C220.997 73.4893 221.892 74.3762 221.892 75.4668C221.892 76.5573 220.997 77.4443 219.898 77.4443C218.799 77.4443 217.905 76.5573 217.905 75.4668V75.4668Z" fill="white"/>
<path d="M242.558 75.4668C242.558 72.1954 239.89 69.5342 236.61 69.5342C233.33 69.5342 230.661 72.1954 230.661 75.4668C230.661 78.7382 233.33 81.3994 236.61 81.3994C239.89 81.3994 242.558 78.7382 242.558 75.4668ZM234.616 75.4668C234.616 74.3762 235.51 73.4893 236.61 73.4893C237.709 73.4893 238.603 74.3762 238.603 75.4668C238.603 76.5573 237.709 77.4443 236.61 77.4443C235.51 77.4443 234.616 76.5573 234.616 75.4668Z" fill="white"/>
<path d="M309.975 81.3994C313.255 81.3994 315.924 78.7382 315.924 75.4668C315.924 72.1954 313.255 69.5342 309.975 69.5342H254.38C251.1 69.5342 248.431 72.1954 248.431 75.4668C248.431 78.7382 251.1 81.3994 254.38 81.3994H309.975ZM252.386 75.4668C252.386 74.3762 253.281 73.4893 254.38 73.4893H309.975C311.074 73.4893 311.969 74.3762 311.969 75.4668C311.969 76.5573 311.074 77.4443 309.975 77.4443H254.38C253.281 77.4443 252.386 76.5573 252.386 75.4668Z" fill="white"/>
<path d="M316.749 60.9648H213.521C212.429 60.9648 211.544 61.8503 211.544 62.9424C211.544 64.0345 212.429 64.9199 213.521 64.9199H316.749C318.567 64.9199 320.045 66.3983 320.045 68.2158V85.2227H192.955V68.2158C192.955 66.3983 194.433 64.9199 196.251 64.9199H204.293C205.385 64.9199 206.271 64.0345 206.271 62.9424C206.271 61.8503 205.385 60.9648 204.293 60.9648H196.251C192.253 60.9648 189 64.2175 189 68.2158V170.784C189 174.782 192.253 178.035 196.251 178.035H316.749C320.747 178.035 324 174.782 324 170.784V157.996C324 156.904 323.115 156.019 322.022 156.019C320.93 156.019 320.045 156.904 320.045 157.996V170.784C320.045 172.602 318.567 174.08 316.749 174.08H196.251C194.433 174.08 192.955 172.602 192.955 170.784V89.1777H320.045V148.768C320.045 149.86 320.93 150.745 322.022 150.745C323.115 150.745 324 149.86 324 148.768V68.2158C324 64.2175 320.747 60.9648 316.749 60.9648Z" fill="white"/>
<path d="M287.481 109.612H272.32C271.228 109.612 270.343 110.498 270.343 111.59C270.343 112.682 271.228 113.567 272.32 113.567H287.481C290.026 113.567 292.096 111.497 292.096 108.953V98.4062C292.096 95.8621 290.026 93.792 287.481 93.792H225.782C223.238 93.792 221.168 95.8621 221.168 98.4062V108.953C221.168 111.497 223.238 113.567 225.782 113.567H263.092C264.184 113.567 265.069 112.682 265.069 111.59C265.069 110.498 264.184 109.612 263.092 109.612H225.782C225.419 109.612 225.123 109.316 225.123 108.953V98.4062C225.123 98.0429 225.419 97.7471 225.782 97.7471H287.481C287.845 97.7471 288.141 98.0429 288.141 98.4062V108.953C288.141 109.316 287.845 109.612 287.481 109.612Z" fill="white"/>
<path d="M256.5 118.182C249.303 118.182 243.448 124.037 243.448 131.233C243.448 138.43 249.303 144.285 256.5 144.285C263.697 144.285 269.552 138.43 269.552 131.233C269.552 124.037 263.697 118.182 256.5 118.182ZM256.5 140.33C251.484 140.33 247.403 136.249 247.403 131.233C247.403 126.218 251.484 122.137 256.5 122.137C261.516 122.137 265.597 126.218 265.597 131.233C265.597 136.249 261.516 140.33 256.5 140.33Z" fill="white"/>
<path d="M293.15 118.182C285.954 118.182 280.099 124.037 280.099 131.233C280.099 138.43 285.954 144.285 293.15 144.285C300.347 144.285 306.202 138.43 306.202 131.233C306.202 124.037 300.347 118.182 293.15 118.182ZM293.15 140.33C288.135 140.33 284.054 136.249 284.054 131.233C284.054 126.218 288.135 122.137 293.15 122.137C298.166 122.137 302.247 126.218 302.247 131.233C302.247 136.249 298.166 140.33 293.15 140.33Z" fill="white"/>
<path d="M219.85 118.182C212.653 118.182 206.798 124.037 206.798 131.233C206.798 138.43 212.653 144.285 219.85 144.285C221.574 144.285 223.251 143.953 224.833 143.3C225.842 142.882 226.322 141.726 225.905 140.717C225.488 139.707 224.332 139.227 223.322 139.645C222.221 140.099 221.053 140.33 219.85 140.33C214.834 140.33 210.753 136.249 210.753 131.233C210.753 126.218 214.834 122.137 219.85 122.137C224.865 122.137 228.946 126.218 228.946 131.233C228.946 132.195 228.797 133.142 228.504 134.046C228.166 135.085 228.735 136.2 229.774 136.538C230.813 136.875 231.928 136.306 232.265 135.268C232.688 133.968 232.901 132.611 232.901 131.233C232.901 124.037 227.046 118.182 219.85 118.182Z" fill="white"/>
<path d="M230.396 148.24H211.939C210.847 148.24 209.962 149.126 209.962 150.218C209.962 151.31 210.847 152.195 211.939 152.195H230.396C231.489 152.195 232.374 151.31 232.374 150.218C232.374 149.126 231.489 148.24 230.396 148.24Z" fill="white"/>
<path d="M230.396 156.15H209.303C208.211 156.15 207.325 157.036 207.325 158.128C207.325 159.22 208.211 160.105 209.303 160.105H230.396C231.489 160.105 232.374 159.22 232.374 158.128C232.374 157.036 231.489 156.15 230.396 156.15Z" fill="white"/>
<path d="M230.396 164.061H209.303C208.211 164.061 207.325 164.946 207.325 166.038C207.325 167.13 208.211 168.016 209.303 168.016H230.396C231.489 168.016 232.374 167.13 232.374 166.038C232.374 164.946 231.489 164.061 230.396 164.061Z" fill="white"/>
<path d="M267.047 148.24H248.59C247.498 148.24 246.612 149.126 246.612 150.218C246.612 151.31 247.498 152.195 248.59 152.195H267.047C268.139 152.195 269.024 151.31 269.024 150.218C269.024 149.126 268.139 148.24 267.047 148.24Z" fill="white"/>
<path d="M267.047 156.15H245.953C244.861 156.15 243.976 157.036 243.976 158.128C243.976 159.22 244.861 160.105 245.953 160.105H267.047C268.139 160.105 269.024 159.22 269.024 158.128C269.024 157.036 268.139 156.15 267.047 156.15Z" fill="white"/>
<path d="M267.047 164.061H245.953C244.861 164.061 243.976 164.946 243.976 166.038C243.976 167.13 244.861 168.016 245.953 168.016H267.047C268.139 168.016 269.024 167.13 269.024 166.038C269.024 164.946 268.139 164.061 267.047 164.061Z" fill="white"/>
<path d="M303.697 148.24H285.24C284.148 148.24 283.263 149.126 283.263 150.218C283.263 151.31 284.148 152.195 285.24 152.195H303.697C304.79 152.195 305.675 151.31 305.675 150.218C305.675 149.126 304.79 148.24 303.697 148.24Z" fill="white"/>
<path d="M303.697 156.15H282.604C281.511 156.15 280.626 157.036 280.626 158.128C280.626 159.22 281.511 160.105 282.604 160.105H303.697C304.79 160.105 305.675 159.22 305.675 158.128C305.675 157.036 304.79 156.15 303.697 156.15Z" fill="white"/>
<path d="M303.697 164.061H282.604C281.511 164.061 280.626 164.946 280.626 166.038C280.626 167.13 281.511 168.016 282.604 168.016H303.697C304.79 168.016 305.675 167.13 305.675 166.038C305.675 164.946 304.79 164.061 303.697 164.061Z" fill="white"/>
<path d="M138.262 237C130.537 237 126.675 234.627 126.675 229.881C126.675 228.562 126.943 227.308 127.48 226.116L129.78 227.127C129.458 227.947 129.297 228.733 129.297 229.485C129.297 232.698 132.261 234.305 138.188 234.305C143.267 234.305 146.406 233.67 147.607 232.4C147.939 232.049 148.105 231.453 148.105 230.613C148.105 230.281 148.096 230.003 148.076 229.778L148.003 228.592L150.42 228.299L150.654 231.448C150.713 232.278 150.957 232.967 151.387 233.514C151.807 234.041 152.49 234.305 153.438 234.305H153.628C153.823 234.305 153.921 234.681 153.921 235.433V235.711C153.921 236.57 153.823 237 153.628 237H153.438C151.377 237 149.912 236.136 149.043 234.407C147.412 236.136 143.838 237 138.32 237H138.262ZM139.287 223.201L141.426 221.062L143.564 223.216L141.44 225.34L139.287 223.201ZM134.526 223.201L136.65 221.062L138.804 223.216L136.665 225.34L134.526 223.201ZM154.536 237H153.423C152.856 237 152.573 236.57 152.573 235.711V235.433C152.573 234.681 152.856 234.305 153.423 234.305H154.536C156.099 234.305 157.158 234.148 157.715 233.836C158.545 233.348 158.96 232.327 158.96 230.774C158.96 229.612 158.779 228.318 158.418 226.893L160.806 226.292C161.284 227.815 161.523 229.295 161.523 230.73C161.523 233.123 160.84 234.837 159.473 235.872C158.477 236.624 156.831 237 154.536 237ZM157.964 241.644L160.103 239.505L162.241 241.658L160.117 243.782L157.964 241.644ZM153.203 241.644L155.327 239.505L157.48 241.658L155.342 243.782L153.203 241.644ZM172.144 235.711C172.153 236.57 172.056 237 171.851 237H171.543C167.754 237 165.859 234.881 165.859 230.643V215.936H168.408V230.613C168.408 233.074 169.468 234.305 171.587 234.305H171.851C172.046 234.305 172.144 234.681 172.144 235.433V235.711ZM184.023 232.151C184.082 231.868 184.111 231.526 184.111 231.126C184.111 230.687 184.092 230.232 184.053 229.764L183.965 228.885L186.382 228.592L186.616 231.976C186.724 233.519 187.49 234.29 188.916 234.29C190.371 234.29 191.099 233.245 191.099 231.155C191.099 230.149 190.884 228.904 190.454 227.42L192.959 226.746C193.447 228.289 193.687 229.725 193.677 231.053C193.677 231.082 193.677 231.111 193.677 231.141C193.667 233.357 193.071 234.983 191.89 236.019C191.157 236.663 190.186 236.985 188.975 236.985C187.168 236.985 185.977 236.302 185.4 234.935C184.414 236.312 183.022 237 181.226 237C179.136 236.99 177.798 236.302 177.212 234.935C176.431 236.312 174.854 237 172.48 237H171.66C171.094 237 170.811 236.57 170.811 235.711V235.433C170.811 234.681 171.094 234.305 171.66 234.305H172.51C174.512 234.305 175.664 233.587 175.967 232.151C176.025 231.868 176.055 231.526 176.055 231.126C176.055 230.706 176.035 230.252 175.996 229.764L175.908 228.885L178.325 228.592L178.56 231.976C178.667 233.528 179.565 234.305 181.255 234.305C182.817 234.305 183.74 233.587 184.023 232.151ZM207.549 232.034C207.549 233.411 208.105 234.1 209.219 234.1C210.635 234.1 211.67 232.562 212.324 229.485L214.141 229.5C214.668 232.605 215.669 234.158 217.144 234.158C218.169 234.158 218.682 233.445 218.682 232.02C218.682 228.855 216.655 225.237 212.603 221.165C209.233 225.608 207.549 229.231 207.549 232.034ZM208.999 236.824C206.323 236.824 204.985 235.228 204.985 232.034C204.985 228.577 206.865 224.324 210.625 219.275L210.64 219.246L210.61 219.217L209.819 218.484L211.636 216.258L213.481 218.001C218.657 223.089 221.245 227.718 221.245 231.888C221.245 235.179 219.951 236.824 217.363 236.824C215.43 236.824 214.053 235.696 213.232 233.44C212.48 235.696 211.069 236.824 208.999 236.824ZM253.442 234.305C253.647 234.305 253.75 234.681 253.75 235.433V235.711C253.75 236.57 253.647 237 253.442 237H251.362H250.996C251.553 237.43 251.831 237.981 251.831 238.655C251.831 240.149 250.947 241.468 249.18 242.61C247.148 243.929 244.746 244.588 241.973 244.588C235.693 244.588 232.554 242.059 232.554 237C232.554 234.92 233.047 232.806 234.033 230.657L236.362 231.609C235.532 233.709 235.117 235.447 235.117 236.824C235.117 240.281 237.397 242.01 241.958 242.01C243.677 242.01 245.22 241.697 246.587 241.072C247.71 240.564 248.511 239.949 248.989 239.227C249.214 238.885 249.326 238.558 249.326 238.245C249.326 237.405 248.682 236.985 247.393 236.985H245.151C244.585 236.927 244.199 236.468 243.994 235.608C243.896 235.198 243.848 234.896 243.848 234.7C243.848 234.476 243.901 234.344 244.009 234.305H253.442ZM253.281 237C252.715 237 252.432 236.57 252.432 235.711V235.433C252.432 234.681 252.715 234.305 253.281 234.305H254.16C257.383 234.305 261.367 233.079 266.113 230.628L267.197 230.071C266.943 230.003 265.889 229.593 264.033 228.841C262.119 228.069 260.815 227.684 260.122 227.684C259.019 227.684 258.11 228.143 257.397 229.061L256.987 229.588L254.731 228.475L254.966 228.064C256.196 226.043 257.92 225.027 260.137 225.018C261.377 225.018 262.861 225.438 264.59 226.277C267.637 227.762 269.995 228.538 271.665 228.606L271.636 231.155C270.513 231.253 268.442 232.098 265.425 233.689C261.235 235.896 257.422 237 253.984 237H253.281ZM275.327 215.936H277.861V236.985H275.327V215.936ZM287.456 229.207L288.291 232.034C288.73 233.548 289.658 234.305 291.074 234.305H291.484C291.68 234.305 291.777 234.656 291.777 235.359V235.711C291.777 236.57 291.68 237 291.484 237H291.235C289.849 237 288.96 236.741 288.569 236.224C288.013 240.862 284.639 243.514 278.447 244.178L277.832 241.688C283.369 241.131 286.133 238.821 286.123 234.759C286.123 233.294 285.737 231.736 284.966 230.086L287.456 229.207ZM298.604 237H291.235C290.669 237 290.386 236.57 290.386 235.711V235.433C290.386 234.681 290.669 234.305 291.235 234.305H293.667H293.696L293.711 234.275C293.809 234.109 294.155 233.567 294.751 232.649V232.635V232.62V215.921H297.285V228.899V229.031L297.373 228.929C299.434 226.341 301.543 225.047 303.701 225.047C305.762 225.037 307.339 225.813 308.433 227.376C308.726 227.796 308.945 228.255 309.092 228.753C309.238 229.241 309.312 229.769 309.312 230.335C309.312 234.778 305.742 237 298.604 237ZM296.509 234.29H298.677C301.333 234.29 303.286 234.017 304.536 233.47C305.942 232.854 306.646 231.907 306.646 230.628C306.646 229.798 306.362 229.124 305.796 228.606C305.513 228.353 305.19 228.162 304.829 228.035C304.478 227.908 304.092 227.845 303.672 227.845C301.523 227.874 299.121 230.003 296.465 234.231L296.421 234.29H296.509ZM337.451 227.317L337.261 229.866C336.255 229.944 335.303 230.047 334.404 230.174V230.291C334.404 232.977 335.776 234.314 338.521 234.305H339.443C339.639 234.305 339.736 234.656 339.736 235.359V235.711C339.736 236.57 339.639 237 339.443 237H338.521C334.282 237 332.158 234.93 332.148 230.789V230.613C326.279 232.088 323.345 234.847 323.345 238.89C323.345 242.493 325.938 244.295 331.123 244.295C333.242 244.295 335.278 243.826 337.231 242.889L337.759 245.511C335.815 246.458 333.535 246.932 330.918 246.932C327.148 246.932 324.424 246.023 322.744 244.207C321.484 242.85 320.854 241.155 320.854 239.124C320.854 233.421 324.351 229.793 331.343 228.24L331.489 228.211C331.235 228.113 330.679 227.894 329.819 227.552C327.915 226.78 326.611 226.395 325.908 226.395C324.805 226.395 323.896 226.854 323.184 227.771L322.773 228.299L320.518 227.186L320.752 226.775C321.992 224.744 323.721 223.729 325.938 223.729C327.168 223.729 328.647 224.148 330.376 224.988C333.423 226.473 335.781 227.249 337.451 227.317ZM327.314 238.538L329.453 236.399L331.592 238.553L329.468 240.677L327.314 238.538ZM343.765 241.644L345.903 239.505L348.042 241.658L345.918 243.782L343.765 241.644ZM339.004 241.644L341.128 239.505L343.281 241.658L341.143 243.782L339.004 241.644ZM350.239 235.711C350.239 236.57 350.142 237 349.946 237H349.8C347.866 237 346.533 236.312 345.801 234.935C344.834 236.312 343.145 237 340.732 237H339.209C338.652 237 338.374 236.57 338.374 235.711V235.433C338.374 234.681 338.652 234.305 339.209 234.305H340.659C342.915 234.305 344.165 233.66 344.409 232.371C344.468 232.029 344.497 231.624 344.497 231.155C344.497 230.667 344.482 230.203 344.453 229.764L344.38 228.577L346.782 228.284L347.017 231.668C347.144 233.426 348.081 234.305 349.829 234.305H349.946C350.142 234.305 350.239 234.725 350.239 235.564V235.711ZM353.052 222.22C355.601 224.358 357.466 226.062 358.647 227.332C359.438 228.191 360.068 229.29 360.537 230.628C361.396 233.079 362.803 234.305 364.756 234.305H364.99C365.186 234.305 365.283 234.681 365.283 235.433V235.711C365.283 236.57 365.186 237 364.99 237H364.756C362.637 237 360.933 236.136 359.644 234.407C358.53 236.136 355.928 237 351.836 237H349.741C349.175 237 348.892 236.57 348.892 235.711V235.433C348.892 234.681 349.175 234.305 349.741 234.305H351.821C355.854 234.305 357.876 233.372 357.886 231.507C357.886 230.55 357.378 229.598 356.362 228.65C354.868 227.254 353.535 226.097 352.363 225.179C351.25 224.31 350.693 223.396 350.693 222.439C350.693 221.17 351.377 220.276 352.744 219.759L362.896 215.906V218.558L353.052 222.22ZM365.913 237H364.8C364.233 237 363.95 236.57 363.95 235.711V235.433C363.95 234.681 364.233 234.305 364.8 234.305H365.913C367.476 234.305 368.535 234.148 369.092 233.836C369.922 233.348 370.337 232.327 370.337 230.774C370.337 229.612 370.156 228.318 369.795 226.893L372.183 226.292C372.661 227.815 372.9 229.295 372.9 230.73C372.9 233.123 372.217 234.837 370.85 235.872C369.854 236.624 368.208 237 365.913 237ZM366.88 245.335L368.975 243.255L371.055 245.335L368.96 247.43L366.88 245.335ZM369.282 241.409L371.392 239.329L373.472 241.395L371.377 243.489L369.282 241.409ZM364.536 241.409L366.616 239.329L368.711 241.395L366.602 243.489L364.536 241.409Z" fill="white"/>
</g>
<defs>
<linearGradient id="paint0_linear" x1="0" y1="144.5" x2="490.234" y2="144.5" gradientUnits="userSpaceOnUse">
<stop stop-color="#38EF7D"/>
<stop offset="1" stop-color="#11998E"/>
</linearGradient>
<clipPath id="clip0">
<rect width="500" height="289" fill="white"/>
</clipPath>
</defs>
</svg>
