<svg width="500" height="289" viewBox="0 0 500 289" fill="none" xmlns="http://www.w3.org/2000/svg">
<g clip-path="url(#clip0)">
<rect width="500" height="289" fill="url(#paint0_linear)"/>
<g clip-path="url(#clip1)">
<path d="M253.492 119.511C252.568 118.587 251.072 118.587 250.148 119.511C249.227 120.432 249.227 121.928 250.148 122.852C251.072 123.774 252.568 123.774 253.492 122.852C254.414 121.928 254.414 120.432 253.492 119.511Z" fill="white"/>
<path d="M283.57 89.4305C278.952 84.8129 271.477 84.8127 266.858 89.4305C262.253 94.0363 262.252 101.533 266.859 106.142C271.467 110.747 278.963 110.749 283.57 106.142C288.187 101.524 288.188 94.0486 283.57 89.4305ZM280.228 102.799C277.464 105.563 272.966 105.563 270.201 102.8C267.437 100.034 267.437 95.5361 270.201 92.7727C272.971 90.0022 277.457 90.0018 280.228 92.7727C282.998 95.5429 282.999 100.029 280.228 102.799Z" fill="white"/>
<path d="M310.307 62.6922C309.843 62.2283 309.21 61.9768 308.551 62.0017C308.017 62.0208 295.294 62.5322 280.171 67.8777C268.052 72.1567 257.95 78.283 250.147 86.0865C248.398 87.8351 246.697 89.6893 245.069 91.6156C237.353 87.0739 231.17 88.498 227.262 90.5897C218.262 95.4061 212.692 108.484 212.692 117.837C212.692 118.793 213.268 119.655 214.151 120.021C214.444 120.142 214.751 120.201 215.055 120.201C215.67 120.201 216.275 119.96 216.727 119.508C221.473 114.762 227.327 115.059 229.239 115.311L230.067 116.138C228.438 120.014 227.126 123.868 226.164 127.616C225.816 128.973 225.934 130.408 226.45 131.721C224.175 132.77 221.979 134.31 220.068 136.221C213.985 142.305 212.749 157.13 212.7 157.759C212.645 158.448 212.895 159.127 213.384 159.616C213.829 160.06 214.431 160.308 215.055 160.308C215.117 160.308 215.179 160.305 215.241 160.301C215.87 160.251 230.696 159.016 236.779 152.933C238.69 151.022 240.229 148.827 241.278 146.552C242.668 147.099 244.099 147.166 245.385 146.836C249.132 145.874 252.986 144.562 256.862 142.933L257.689 143.761C257.941 145.674 258.237 151.528 253.492 156.273C252.816 156.949 252.614 157.966 252.979 158.849C253.345 159.732 254.207 160.308 255.163 160.308C264.516 160.308 277.594 154.737 282.41 145.738C284.502 141.829 285.926 135.647 281.384 127.931C283.309 126.303 285.164 124.602 286.913 122.852C294.717 115.049 300.843 104.948 305.122 92.8297C310.468 77.7052 310.979 64.9822 310.998 64.4481C311.021 63.7923 310.771 63.1564 310.307 62.6922ZM217.976 112.754C219.444 105.649 223.708 97.8533 229.493 94.7569C233.359 92.6881 237.585 92.8909 242.078 95.3503C238.25 100.385 234.922 105.808 232.149 111.536C232.113 111.514 231.688 110.979 230.898 110.801C230.573 110.727 224.32 109.383 217.976 112.754ZM233.437 149.59C230.188 152.84 222.565 154.553 217.747 155.253C218.447 150.435 220.161 142.812 223.41 139.563C225.23 137.743 227.34 136.364 229.461 135.587L237.413 143.54C236.636 145.66 235.257 147.77 233.437 149.59ZM244.211 142.258C243.527 142.433 242.735 142.176 242.146 141.588C239.089 138.53 237.893 137.334 237.517 136.959C236.829 136.271 235.142 134.583 231.414 130.855C230.825 130.265 230.568 129.473 230.742 128.79C231.499 125.842 232.489 122.818 233.693 119.764L253.236 139.307C250.182 140.511 247.158 141.501 244.211 142.258ZM278.243 143.507C275.147 149.292 267.351 153.557 260.247 155.024C262.512 150.762 263.011 145.336 262.183 142.045C261.991 141.281 261.493 140.897 261.465 140.851C267.192 138.078 272.615 134.75 277.65 130.922C280.109 135.416 280.312 139.642 278.243 143.507ZM283.572 119.51C281.442 121.64 279.149 123.697 276.756 125.625C271.003 130.257 264.671 134.18 257.916 137.303L235.697 115.084C238.82 108.329 242.744 101.997 247.375 96.2451C249.305 93.8504 251.362 91.557 253.49 89.4287C260.491 82.4272 269.527 76.8551 280.354 72.8441L300.156 92.6465C296.146 103.473 290.573 112.509 283.572 119.51ZM301.856 87.6621L285.338 71.1438C294.338 68.3485 302.167 67.3018 306.075 66.9255C305.698 70.8342 304.652 78.6635 301.856 87.6621Z" fill="white"/>
<path d="M246.806 159.615C245.883 158.692 244.387 158.693 243.464 159.615L236.781 166.301C235.858 167.224 235.858 168.721 236.781 169.643C237.704 170.566 239.201 170.566 240.123 169.643L246.807 162.957C247.729 162.034 247.729 160.538 246.806 159.615Z" fill="white"/>
<path d="M213.386 126.194C212.463 125.271 210.967 125.271 210.043 126.193L203.358 132.877C202.435 133.799 202.434 135.296 203.357 136.219C204.279 137.142 205.776 137.143 206.699 136.219L213.385 129.536C214.308 128.613 214.308 127.117 213.386 126.194Z" fill="white"/>
<path d="M230.096 162.959C229.174 162.036 227.677 162.036 226.754 162.959L210.745 178.965C209.822 179.888 209.822 181.385 210.745 182.308C211.667 183.23 213.164 183.231 214.087 182.308L230.096 166.301C231.019 165.378 231.019 163.882 230.096 162.959Z" fill="white"/>
<path d="M211.19 162.959C210.267 162.036 208.771 162.036 207.848 162.959L191.839 178.965C190.916 179.888 190.916 181.385 191.839 182.308C192.761 183.23 194.258 183.231 195.181 182.308L211.19 166.301C212.113 165.378 212.113 163.882 211.19 162.959Z" fill="white"/>
<path d="M210.041 142.904C209.118 141.981 207.622 141.981 206.699 142.904L190.692 158.913C189.77 159.836 189.77 161.332 190.693 162.255C191.616 163.178 193.112 163.178 194.035 162.255L210.041 146.246C210.964 145.323 210.964 143.827 210.041 142.904Z" fill="white"/>
<path d="M263.518 109.483C262.594 108.56 261.098 108.56 260.175 109.483L256.833 112.824C255.911 113.747 255.911 115.244 256.833 116.167C257.757 117.09 259.253 117.09 260.176 116.167L263.518 112.825C264.44 111.902 264.44 110.406 263.518 109.483Z" fill="white"/>
</g>
<path d="M105.479 237C97.7539 237 93.8916 234.627 93.8916 229.881C93.8916 228.562 94.1602 227.308 94.6973 226.116L96.9971 227.127C96.6748 227.947 96.5137 228.733 96.5137 229.485C96.5137 232.698 99.4775 234.305 105.405 234.305C110.483 234.305 113.623 233.67 114.824 232.4C115.156 232.049 115.322 231.453 115.322 230.613C115.322 230.281 115.312 230.003 115.293 229.778L115.22 228.592L117.637 228.299L117.871 231.448C117.93 232.278 118.174 232.967 118.604 233.514C119.023 234.041 119.707 234.305 120.654 234.305H120.845C121.04 234.305 121.138 234.681 121.138 235.433V235.711C121.138 236.57 121.04 237 120.845 237H120.654C118.594 237 117.129 236.136 116.26 234.407C114.629 236.136 111.055 237 105.537 237H105.479ZM106.504 223.201L108.643 221.062L110.781 223.216L108.657 225.34L106.504 223.201ZM101.743 223.201L103.867 221.062L106.021 223.216L103.882 225.34L101.743 223.201ZM121.753 237H120.64C120.073 237 119.79 236.57 119.79 235.711V235.433C119.79 234.681 120.073 234.305 120.64 234.305H121.753C123.315 234.305 124.375 234.148 124.932 233.836C125.762 233.348 126.177 232.327 126.177 230.774C126.177 229.612 125.996 228.318 125.635 226.893L128.022 226.292C128.501 227.815 128.74 229.295 128.74 230.73C128.74 233.123 128.057 234.837 126.689 235.872C125.693 236.624 124.048 237 121.753 237ZM125.181 241.644L127.319 239.505L129.458 241.658L127.334 243.782L125.181 241.644ZM120.42 241.644L122.544 239.505L124.697 241.658L122.559 243.782L120.42 241.644ZM139.36 235.711C139.37 236.57 139.272 237 139.067 237H138.76C134.971 237 133.076 234.881 133.076 230.643V215.936H135.625V230.613C135.625 233.074 136.685 234.305 138.804 234.305H139.067C139.263 234.305 139.36 234.681 139.36 235.433V235.711ZM151.24 232.151C151.299 231.868 151.328 231.526 151.328 231.126C151.328 230.687 151.309 230.232 151.27 229.764L151.182 228.885L153.599 228.592L153.833 231.976C153.94 233.519 154.707 234.29 156.133 234.29C157.588 234.29 158.315 233.245 158.315 231.155C158.315 230.149 158.101 228.904 157.671 227.42L160.176 226.746C160.664 228.289 160.903 229.725 160.894 231.053C160.894 231.082 160.894 231.111 160.894 231.141C160.884 233.357 160.288 234.983 159.106 236.019C158.374 236.663 157.402 236.985 156.191 236.985C154.385 236.985 153.193 236.302 152.617 234.935C151.631 236.312 150.239 237 148.442 237C146.353 236.99 145.015 236.302 144.429 234.935C143.647 236.312 142.07 237 139.697 237H138.877C138.311 237 138.027 236.57 138.027 235.711V235.433C138.027 234.681 138.311 234.305 138.877 234.305H139.727C141.729 234.305 142.881 233.587 143.184 232.151C143.242 231.868 143.271 231.526 143.271 231.126C143.271 230.706 143.252 230.252 143.213 229.764L143.125 228.885L145.542 228.592L145.776 231.976C145.884 233.528 146.782 234.305 148.472 234.305C150.034 234.305 150.957 233.587 151.24 232.151ZM183.643 237C175.918 237 172.056 234.627 172.056 229.881C172.056 228.562 172.324 227.308 172.861 226.116L175.161 227.127C174.839 227.947 174.678 228.733 174.678 229.485C174.678 232.698 177.642 234.305 183.569 234.305C188.647 234.305 191.787 233.67 192.988 232.4C193.32 232.049 193.486 231.453 193.486 230.613C193.486 230.281 193.477 230.003 193.457 229.778L193.384 228.592L195.801 228.299L196.035 231.448C196.094 232.278 196.338 232.967 196.768 233.514C197.188 234.041 197.871 234.305 198.818 234.305H199.009C199.204 234.305 199.302 234.681 199.302 235.433V235.711C199.302 236.57 199.204 237 199.009 237H198.818C196.758 237 195.293 236.136 194.424 234.407C192.793 236.136 189.219 237 183.701 237H183.643ZM184.668 223.201L186.807 221.062L188.945 223.216L186.821 225.34L184.668 223.201ZM179.907 223.201L182.031 221.062L184.185 223.216L182.046 225.34L179.907 223.201ZM211.562 228.445C210.352 227.449 209.15 226.946 207.959 226.937C207.334 226.927 206.772 227.015 206.274 227.2C205.776 227.376 205.347 227.64 204.985 227.991C204.644 228.333 204.385 228.714 204.209 229.134C204.033 229.554 203.945 230.018 203.945 230.525C203.945 231.844 204.707 232.874 206.23 233.616C206.445 233.724 206.572 233.772 206.611 233.763L212.998 232.137V234.832C208.35 236.277 204.072 237 200.166 237H198.818C198.252 237 197.969 236.57 197.969 235.711V235.433C197.969 234.681 198.252 234.305 198.818 234.305H202.817H202.92L202.861 234.231C202.617 233.968 202.397 233.685 202.202 233.382C201.655 232.552 201.387 231.551 201.396 230.379C201.406 228.777 201.841 227.435 202.7 226.351C203.159 225.774 203.735 225.301 204.429 224.93C205.327 224.441 206.382 224.202 207.593 224.212C209.595 224.222 211.245 224.9 212.544 226.248L211.562 228.445ZM221.392 229.207L222.227 232.034C222.666 233.548 223.594 234.305 225.01 234.305H225.42C225.615 234.305 225.713 234.656 225.713 235.359V235.711C225.713 236.57 225.615 237 225.42 237H225.171C223.784 237 222.896 236.741 222.505 236.224C221.948 240.862 218.574 243.514 212.383 244.178L211.768 241.688C217.305 241.131 220.068 238.821 220.059 234.759C220.059 233.294 219.673 231.736 218.901 230.086L221.392 229.207ZM237.549 232.151C237.607 231.868 237.637 231.526 237.637 231.126C237.637 230.687 237.617 230.232 237.578 229.764L237.49 228.885L239.907 228.592L240.142 231.976C240.249 233.519 241.016 234.29 242.441 234.29C243.896 234.29 244.624 233.245 244.624 231.155C244.624 230.149 244.409 228.904 243.979 227.42L246.484 226.746C246.973 228.289 247.212 229.725 247.202 231.053C247.202 231.082 247.202 231.111 247.202 231.141C247.192 233.357 246.597 234.983 245.415 236.019C244.683 236.663 243.711 236.985 242.5 236.985C240.693 236.985 239.502 236.302 238.926 234.935C237.939 236.312 236.548 237 234.751 237C232.661 236.99 231.323 236.302 230.737 234.935C229.956 236.312 228.379 237 226.006 237H225.186C224.619 237 224.336 236.57 224.336 235.711V235.433C224.336 234.681 224.619 234.305 225.186 234.305H226.035C228.037 234.305 229.189 233.587 229.492 232.151C229.551 231.868 229.58 231.526 229.58 231.126C229.58 230.706 229.561 230.252 229.521 229.764L229.434 228.885L231.851 228.592L232.085 231.976C232.192 233.528 233.091 234.305 234.78 234.305C236.343 234.305 237.266 233.587 237.549 232.151ZM280.82 219.29L282.9 217.195L284.995 219.305L282.915 221.385L280.82 219.29ZM283.223 223.216L285.317 221.136L287.412 223.23L285.332 225.311L283.223 223.216ZM278.477 223.216L280.542 221.136L282.651 223.23L280.557 225.311L278.477 223.216ZM276.44 231.917C276.958 233.509 278.037 234.305 279.678 234.305C281.514 234.305 282.432 233.416 282.432 231.639C282.432 230.867 282.422 230.345 282.402 230.071L282.329 228.885L284.731 228.592L284.966 231.976C285.073 233.519 285.845 234.29 287.28 234.29C288.735 234.29 289.473 233.304 289.492 231.331C289.492 230.696 289.463 230.076 289.404 229.471L289.331 228.577L291.748 228.284L291.982 231.067C292.168 233.226 293.071 234.305 294.692 234.305H294.956C295.161 234.305 295.264 234.681 295.264 235.433V235.711C295.244 236.57 295.142 237 294.956 237H294.722C292.778 237 291.562 236.302 291.074 234.905C290.371 236.302 289.15 237 287.412 237C285.547 237 284.326 236.312 283.75 234.935C282.793 236.302 281.431 236.985 279.663 236.985C278.53 236.985 277.637 236.717 276.982 236.18C276.973 237.498 276.65 238.831 276.016 240.179C274.59 243.138 271.675 244.617 267.271 244.617C261.362 244.617 258.408 241.878 258.408 236.399C258.408 234.397 258.901 232.205 259.888 229.822L262.217 230.774C261.396 232.845 260.986 234.71 260.986 236.37C260.986 240.14 263.115 242.024 267.373 242.024C272.012 242.024 274.341 239.842 274.36 235.477C274.36 233.689 273.916 231.893 273.027 230.086L275.562 229.207L276.44 231.917ZM295.864 237H294.751C294.185 237 293.901 236.57 293.901 235.711V235.433C293.901 234.681 294.185 234.305 294.751 234.305H295.864C297.427 234.305 298.486 234.148 299.043 233.836C299.873 233.348 300.288 232.327 300.288 230.774C300.288 229.612 300.107 228.318 299.746 226.893L302.134 226.292C302.612 227.815 302.852 229.295 302.852 230.73C302.852 233.123 302.168 234.837 300.801 235.872C299.805 236.624 298.159 237 295.864 237ZM299.292 241.644L301.431 239.505L303.569 241.658L301.445 243.782L299.292 241.644ZM294.531 241.644L296.655 239.505L298.809 241.658L296.67 243.782L294.531 241.644ZM307.202 215.936H309.736V236.985H307.202V215.936ZM315.098 223.875L317.295 221.678L319.521 223.89L317.31 226.102L315.098 223.875ZM319.346 229.207L320.181 232.034C320.62 233.548 321.548 234.305 322.964 234.305H323.374C323.569 234.305 323.667 234.656 323.667 235.359V235.711C323.667 236.57 323.569 237 323.374 237H323.125C321.738 237 320.85 236.741 320.459 236.224C319.902 240.862 316.528 243.514 310.337 244.178L309.722 241.688C315.259 241.131 318.022 238.821 318.013 234.759C318.013 233.294 317.627 231.736 316.855 230.086L319.346 229.207ZM329.746 231.551C326.572 231.551 324.966 230.228 324.927 227.581C324.927 227.161 324.966 226.756 325.044 226.365C325.337 224.822 325.889 223.631 326.699 222.791C327.52 221.951 328.535 221.531 329.746 221.531C330.566 221.531 331.284 221.731 331.899 222.132C333.53 223.187 334.517 225.228 334.858 228.255C334.927 228.89 334.961 229.49 334.961 230.057C334.961 232.82 334.302 234.695 332.983 235.682C331.812 236.561 329.751 237 326.802 237H323.11C322.544 237 322.261 236.57 322.261 235.711V235.433C322.261 234.681 322.544 234.305 323.11 234.305H326.963C330.684 234.305 332.588 233.338 332.676 231.404C332.676 231.316 332.671 231.229 332.661 231.141C331.763 231.414 330.791 231.551 329.746 231.551ZM327.344 227.186C327.344 228.406 328.208 229.012 329.937 229.002C330.757 229.002 331.587 228.875 332.427 228.621C332.29 227.488 332.041 226.531 331.68 225.75C331.201 224.695 330.522 224.168 329.644 224.168C328.628 224.168 327.92 224.822 327.52 226.131C327.402 226.502 327.344 226.854 327.344 227.186ZM327.212 217.093L329.351 214.954L331.489 217.107L329.365 219.231L327.212 217.093ZM338.813 215.936H341.348V236.985H338.813V215.936ZM370.234 227.317L370.044 229.866C369.038 229.944 368.086 230.047 367.188 230.174V230.291C367.188 232.977 368.56 234.314 371.304 234.305H372.227C372.422 234.305 372.52 234.656 372.52 235.359V235.711C372.52 236.57 372.422 237 372.227 237H371.304C367.065 237 364.941 234.93 364.932 230.789V230.613C359.062 232.088 356.128 234.847 356.128 238.89C356.128 242.493 358.721 244.295 363.906 244.295C366.025 244.295 368.062 243.826 370.015 242.889L370.542 245.511C368.599 246.458 366.318 246.932 363.701 246.932C359.932 246.932 357.207 246.023 355.527 244.207C354.268 242.85 353.638 241.155 353.638 239.124C353.638 233.421 357.134 229.793 364.126 228.24L364.272 228.211C364.019 228.113 363.462 227.894 362.603 227.552C360.698 226.78 359.395 226.395 358.691 226.395C357.588 226.395 356.68 226.854 355.967 227.771L355.557 228.299L353.301 227.186L353.535 226.775C354.775 224.744 356.504 223.729 358.721 223.729C359.951 223.729 361.431 224.148 363.159 224.988C366.206 226.473 368.564 227.249 370.234 227.317ZM360.098 238.538L362.236 236.399L364.375 238.553L362.251 240.677L360.098 238.538ZM376.548 241.644L378.687 239.505L380.825 241.658L378.701 243.782L376.548 241.644ZM371.787 241.644L373.911 239.505L376.064 241.658L373.926 243.782L371.787 241.644ZM383.022 235.711C383.022 236.57 382.925 237 382.729 237H382.583C380.649 237 379.316 236.312 378.584 234.935C377.617 236.312 375.928 237 373.516 237H371.992C371.436 237 371.157 236.57 371.157 235.711V235.433C371.157 234.681 371.436 234.305 371.992 234.305H373.442C375.698 234.305 376.948 233.66 377.192 232.371C377.251 232.029 377.28 231.624 377.28 231.155C377.28 230.667 377.266 230.203 377.236 229.764L377.163 228.577L379.565 228.284L379.8 231.668C379.927 233.426 380.864 234.305 382.612 234.305H382.729C382.925 234.305 383.022 234.725 383.022 235.564V235.711ZM385.835 222.22C388.384 224.358 390.249 226.062 391.431 227.332C392.222 228.191 392.852 229.29 393.32 230.628C394.18 233.079 395.586 234.305 397.539 234.305H397.773C397.969 234.305 398.066 234.681 398.066 235.433V235.711C398.066 236.57 397.969 237 397.773 237H397.539C395.42 237 393.716 236.136 392.427 234.407C391.313 236.136 388.711 237 384.619 237H382.524C381.958 237 381.675 236.57 381.675 235.711V235.433C381.675 234.681 381.958 234.305 382.524 234.305H384.604C388.638 234.305 390.659 233.372 390.669 231.507C390.669 230.55 390.161 229.598 389.146 228.65C387.651 227.254 386.318 226.097 385.146 225.179C384.033 224.31 383.477 223.396 383.477 222.439C383.477 221.17 384.16 220.276 385.527 219.759L395.679 215.906V218.558L385.835 222.22ZM398.696 237H397.583C397.017 237 396.733 236.57 396.733 235.711V235.433C396.733 234.681 397.017 234.305 397.583 234.305H398.696C400.259 234.305 401.318 234.148 401.875 233.836C402.705 233.348 403.12 232.327 403.12 230.774C403.12 229.612 402.939 228.318 402.578 226.893L404.966 226.292C405.444 227.815 405.684 229.295 405.684 230.73C405.684 233.123 405 234.837 403.633 235.872C402.637 236.624 400.991 237 398.696 237ZM399.663 245.335L401.758 243.255L403.838 245.335L401.743 247.43L399.663 245.335ZM402.065 241.409L404.175 239.329L406.255 241.395L404.16 243.489L402.065 241.409ZM397.319 241.409L399.399 239.329L401.494 241.395L399.385 243.489L397.319 241.409Z" fill="white"/>
</g>
<defs>
<linearGradient id="paint0_linear" x1="0" y1="144.5" x2="490.234" y2="144.5" gradientUnits="userSpaceOnUse">
<stop stop-color="#FDC830"/>
<stop offset="1" stop-color="#F37335"/>
</linearGradient>
<clipPath id="clip0">
<rect width="500" height="289" fill="white"/>
</clipPath>
<clipPath id="clip1">
<rect width="121" height="121" fill="white" transform="translate(190 62)"/>
</clipPath>
</defs>
</svg>
