<svg width="500" height="289" viewBox="0 0 500 289" fill="none" xmlns="http://www.w3.org/2000/svg">
<g clip-path="url(#clip0)">
<rect width="500" height="289" fill="url(#paint0_linear)"/>
<g clip-path="url(#clip1)">
<path d="M309.42 76.4481C291.534 71.5472 273.542 63.916 257.391 54.3798C256.533 53.8733 255.468 53.8733 254.611 54.3798C237.993 64.19 220.974 71.4083 202.579 76.4481C201.391 76.7733 200.567 77.8534 200.567 79.0856V107.027C200.567 135.8 213.841 154.846 224.977 165.757C236.966 177.504 250.93 184 256.001 184C261.07 184 275.035 177.504 287.024 165.757C298.159 154.847 311.432 135.801 311.432 107.027V79.0854C311.432 77.8534 310.609 76.7733 309.42 76.4481ZM305.963 107.027C305.963 133.901 293.582 151.673 283.196 161.85C271.407 173.401 258.802 178.53 256.001 178.53C253.199 178.53 240.594 173.401 228.805 161.85C218.418 151.673 206.037 133.901 206.037 107.027V81.1613C223.627 76.167 240.008 69.197 256.001 59.9033C271.595 68.9505 288.793 76.267 305.963 81.1603V107.027Z" fill="white"/>
<path d="M231.762 80.8554C231.208 79.45 229.62 78.7596 228.215 79.3134C223.33 81.2383 218.315 83.01 213.312 84.5796C212.171 84.9377 211.395 85.9939 211.395 87.1888V97.749C211.395 99.2592 212.62 100.484 214.13 100.484C215.64 100.484 216.865 99.2592 216.865 97.749V89.1873C221.353 87.7349 225.837 86.1285 230.22 84.4017C231.625 83.8484 232.315 82.2607 231.762 80.8554Z" fill="white"/>
<path d="M236.956 81.3741C237.323 81.3741 237.696 81.3002 238.053 81.1443L238.103 81.1225C239.487 80.5162 240.11 78.9056 239.503 77.5226C238.897 76.1391 237.277 75.5132 235.895 76.119L235.851 76.1381C234.466 76.7426 233.841 78.3519 234.446 79.7356C234.894 80.7629 235.901 81.3741 236.956 81.3741Z" fill="white"/>
<path d="M288.582 142.177C287.318 141.351 285.623 141.706 284.796 142.971C282.543 146.42 279.899 149.722 276.938 152.786C274.502 155.306 271.863 157.654 269.094 159.765C267.893 160.681 267.662 162.396 268.577 163.598C269.116 164.303 269.93 164.674 270.754 164.674C271.332 164.674 271.915 164.492 272.41 164.114C275.397 161.836 278.244 159.304 280.869 156.588C284.071 153.276 286.933 149.701 289.375 145.962C290.201 144.698 289.846 143.003 288.582 142.177Z" fill="white"/>
<path d="M262.743 164.054L262.586 164.146C261.279 164.903 260.833 166.576 261.589 167.883C262.096 168.759 263.014 169.248 263.959 169.248C264.423 169.248 264.895 169.129 265.326 168.879L265.507 168.773C266.81 168.009 267.248 166.334 266.485 165.031C265.721 163.728 264.046 163.291 262.743 164.054Z" fill="white"/>
<path d="M237.36 113.419C235.681 111.739 233.448 110.815 231.073 110.815C228.698 110.815 226.465 111.74 224.785 113.419C221.318 116.886 221.318 122.528 224.785 125.995L240.932 142.142C242.612 143.821 244.845 144.745 247.22 144.745C249.595 144.745 251.828 143.821 253.508 142.141L287.217 108.432C290.683 104.964 290.683 99.3232 287.216 95.8571C285.537 94.1778 283.304 93.2536 280.928 93.2536C278.553 93.2536 276.32 94.178 274.64 95.8571L247.22 123.278L237.36 113.419ZM278.508 99.7246C279.154 99.0784 280.014 98.7227 280.929 98.7227C281.844 98.7227 282.703 99.0784 283.35 99.7246C284.684 101.059 284.684 103.231 283.349 104.566L249.641 138.274C248.995 138.92 248.135 139.276 247.22 139.276C246.305 139.276 245.446 138.92 244.799 138.274L228.652 122.128C227.317 120.793 227.317 118.621 228.652 117.287C229.298 116.641 230.158 116.284 231.073 116.284C231.988 116.284 232.847 116.64 233.493 117.286L245.286 129.079C245.799 129.592 246.494 129.88 247.22 129.88C247.945 129.88 248.64 129.592 249.153 129.079L278.508 99.7246Z" fill="white"/>
</g>
<path d="M156.045 237C148.32 237 144.458 234.627 144.458 229.881C144.458 228.562 144.727 227.308 145.264 226.116L147.563 227.127C147.241 227.947 147.08 228.733 147.08 229.485C147.08 232.698 150.044 234.305 155.972 234.305C161.05 234.305 164.189 233.67 165.391 232.4C165.723 232.049 165.889 231.453 165.889 230.613C165.889 230.281 165.879 230.003 165.859 229.778L165.786 228.592L168.203 228.299L168.438 231.448C168.496 232.278 168.74 232.967 169.17 233.514C169.59 234.041 170.273 234.305 171.221 234.305H171.411C171.606 234.305 171.704 234.681 171.704 235.433V235.711C171.704 236.57 171.606 237 171.411 237H171.221C169.16 237 167.695 236.136 166.826 234.407C165.195 236.136 161.621 237 156.104 237H156.045ZM157.07 223.201L159.209 221.062L161.348 223.216L159.224 225.34L157.07 223.201ZM152.31 223.201L154.434 221.062L156.587 223.216L154.448 225.34L152.31 223.201ZM172.319 237H171.206C170.64 237 170.356 236.57 170.356 235.711V235.433C170.356 234.681 170.64 234.305 171.206 234.305H172.319C173.882 234.305 174.941 234.148 175.498 233.836C176.328 233.348 176.743 232.327 176.743 230.774C176.743 229.612 176.562 228.318 176.201 226.893L178.589 226.292C179.067 227.815 179.307 229.295 179.307 230.73C179.307 233.123 178.623 234.837 177.256 235.872C176.26 236.624 174.614 237 172.319 237ZM175.747 241.644L177.886 239.505L180.024 241.658L177.9 243.782L175.747 241.644ZM170.986 241.644L173.11 239.505L175.264 241.658L173.125 243.782L170.986 241.644ZM189.927 235.711C189.937 236.57 189.839 237 189.634 237H189.326C185.537 237 183.643 234.881 183.643 230.643V215.936H186.191V230.613C186.191 233.074 187.251 234.305 189.37 234.305H189.634C189.829 234.305 189.927 234.681 189.927 235.433V235.711ZM201.807 232.151C201.865 231.868 201.895 231.526 201.895 231.126C201.895 230.687 201.875 230.232 201.836 229.764L201.748 228.885L204.165 228.592L204.399 231.976C204.507 233.519 205.273 234.29 206.699 234.29C208.154 234.29 208.882 233.245 208.882 231.155C208.882 230.149 208.667 228.904 208.237 227.42L210.742 226.746C211.23 228.289 211.47 229.725 211.46 231.053C211.46 231.082 211.46 231.111 211.46 231.141C211.45 233.357 210.854 234.983 209.673 236.019C208.94 236.663 207.969 236.985 206.758 236.985C204.951 236.985 203.76 236.302 203.184 234.935C202.197 236.312 200.806 237 199.009 237C196.919 236.99 195.581 236.302 194.995 234.935C194.214 236.312 192.637 237 190.264 237H189.443C188.877 237 188.594 236.57 188.594 235.711V235.433C188.594 234.681 188.877 234.305 189.443 234.305H190.293C192.295 234.305 193.447 233.587 193.75 232.151C193.809 231.868 193.838 231.526 193.838 231.126C193.838 230.706 193.818 230.252 193.779 229.764L193.691 228.885L196.108 228.592L196.343 231.976C196.45 233.528 197.349 234.305 199.038 234.305C200.601 234.305 201.523 233.587 201.807 232.151ZM234.209 237C226.484 237 222.622 234.627 222.622 229.881C222.622 228.562 222.891 227.308 223.428 226.116L225.728 227.127C225.405 227.947 225.244 228.733 225.244 229.485C225.244 232.698 228.208 234.305 234.136 234.305C239.214 234.305 242.354 233.67 243.555 232.4C243.887 232.049 244.053 231.453 244.053 230.613C244.053 230.281 244.043 230.003 244.023 229.778L243.95 228.592L246.367 228.299L246.602 231.448C246.66 232.278 246.904 232.967 247.334 233.514C247.754 234.041 248.438 234.305 249.385 234.305H249.575C249.771 234.305 249.868 234.681 249.868 235.433V235.711C249.868 236.57 249.771 237 249.575 237H249.385C247.324 237 245.859 236.136 244.99 234.407C243.359 236.136 239.785 237 234.268 237H234.209ZM235.234 223.201L237.373 221.062L239.512 223.216L237.388 225.34L235.234 223.201ZM230.474 223.201L232.598 221.062L234.751 223.216L232.612 225.34L230.474 223.201ZM253.911 241.644L256.05 239.505L258.188 241.658L256.064 243.782L253.911 241.644ZM249.15 241.644L251.274 239.505L253.428 241.658L251.289 243.782L249.15 241.644ZM260.386 235.711C260.386 236.57 260.288 237 260.093 237H259.946C258.013 237 256.68 236.312 255.947 234.935C254.98 236.312 253.291 237 250.879 237H249.355C248.799 237 248.521 236.57 248.521 235.711V235.433C248.521 234.681 248.799 234.305 249.355 234.305H250.806C253.062 234.305 254.312 233.66 254.556 232.371C254.614 232.029 254.644 231.624 254.644 231.155C254.644 230.667 254.629 230.203 254.6 229.764L254.526 228.577L256.929 228.284L257.163 231.668C257.29 233.426 258.228 234.305 259.976 234.305H260.093C260.288 234.305 260.386 234.725 260.386 235.564V235.711ZM270.903 235.711C270.903 236.57 270.806 237 270.61 237H270.464C268.53 237 267.197 236.312 266.465 234.935C265.498 236.312 263.809 237 261.396 237H259.873C259.316 237 259.038 236.57 259.038 235.711V235.433C259.038 234.681 259.316 234.305 259.873 234.305H261.323C263.579 234.305 264.829 233.66 265.073 232.371C265.132 232.029 265.161 231.624 265.161 231.155C265.161 230.667 265.146 230.203 265.117 229.764L265.044 228.577L267.446 228.284L267.681 231.668C267.808 233.426 268.745 234.305 270.493 234.305H270.61C270.806 234.305 270.903 234.725 270.903 235.564V235.711ZM263.271 222.938L265.41 220.799L267.549 222.952L265.425 225.076L263.271 222.938ZM279.766 234.7C281.133 234.7 281.816 234.031 281.816 232.693C281.816 232.059 281.719 231.512 281.523 231.053C281.055 229.988 280.273 229.456 279.18 229.456C277.832 229.456 276.802 230.467 276.089 232.488C277.368 233.963 278.594 234.7 279.766 234.7ZM274.814 234.905C273.613 236.302 272.246 237 270.713 237H270.405C269.849 237 269.57 236.57 269.57 235.711V235.433C269.57 234.681 269.849 234.305 270.405 234.305H270.64C271.431 234.305 272.212 233.846 272.983 232.928C273.315 232.518 273.687 231.854 274.097 230.936C275.376 228.104 277.051 226.683 279.121 226.673C280.732 226.673 282.002 227.254 282.93 228.416C283.857 229.568 284.321 230.921 284.321 232.474C284.321 233.987 283.994 235.13 283.34 235.901C282.529 236.849 281.406 237.322 279.971 237.322C278.076 237.322 276.357 236.517 274.814 234.905ZM288.247 215.936H290.781V236.985H288.247V215.936ZM319.668 227.317L319.478 229.866C318.472 229.944 317.52 230.047 316.621 230.174V230.291C316.621 232.977 317.993 234.314 320.737 234.305H321.66C321.855 234.305 321.953 234.656 321.953 235.359V235.711C321.953 236.57 321.855 237 321.66 237H320.737C316.499 237 314.375 234.93 314.365 230.789V230.613C308.496 232.088 305.562 234.847 305.562 238.89C305.562 242.493 308.154 244.295 313.34 244.295C315.459 244.295 317.495 243.826 319.448 242.889L319.976 245.511C318.032 246.458 315.752 246.932 313.135 246.932C309.365 246.932 306.641 246.023 304.961 244.207C303.701 242.85 303.071 241.155 303.071 239.124C303.071 233.421 306.567 229.793 313.56 228.24L313.706 228.211C313.452 228.113 312.896 227.894 312.036 227.552C310.132 226.78 308.828 226.395 308.125 226.395C307.021 226.395 306.113 226.854 305.4 227.771L304.99 228.299L302.734 227.186L302.969 226.775C304.209 224.744 305.938 223.729 308.154 223.729C309.385 223.729 310.864 224.148 312.593 224.988C315.64 226.473 317.998 227.249 319.668 227.317ZM309.531 238.538L311.67 236.399L313.809 238.553L311.685 240.677L309.531 238.538ZM325.981 241.644L328.12 239.505L330.259 241.658L328.135 243.782L325.981 241.644ZM321.221 241.644L323.345 239.505L325.498 241.658L323.359 243.782L321.221 241.644ZM332.456 235.711C332.456 236.57 332.358 237 332.163 237H332.017C330.083 237 328.75 236.312 328.018 234.935C327.051 236.312 325.361 237 322.949 237H321.426C320.869 237 320.591 236.57 320.591 235.711V235.433C320.591 234.681 320.869 234.305 321.426 234.305H322.876C325.132 234.305 326.382 233.66 326.626 232.371C326.685 232.029 326.714 231.624 326.714 231.155C326.714 230.667 326.699 230.203 326.67 229.764L326.597 228.577L328.999 228.284L329.233 231.668C329.36 233.426 330.298 234.305 332.046 234.305H332.163C332.358 234.305 332.456 234.725 332.456 235.564V235.711ZM335.269 222.22C337.817 224.358 339.683 226.062 340.864 227.332C341.655 228.191 342.285 229.29 342.754 230.628C343.613 233.079 345.02 234.305 346.973 234.305H347.207C347.402 234.305 347.5 234.681 347.5 235.433V235.711C347.5 236.57 347.402 237 347.207 237H346.973C344.854 237 343.149 236.136 341.86 234.407C340.747 236.136 338.145 237 334.053 237H331.958C331.392 237 331.108 236.57 331.108 235.711V235.433C331.108 234.681 331.392 234.305 331.958 234.305H334.038C338.071 234.305 340.093 233.372 340.103 231.507C340.103 230.55 339.595 229.598 338.579 228.65C337.085 227.254 335.752 226.097 334.58 225.179C333.467 224.31 332.91 223.396 332.91 222.439C332.91 221.17 333.594 220.276 334.961 219.759L345.112 215.906V218.558L335.269 222.22ZM348.13 237H347.017C346.45 237 346.167 236.57 346.167 235.711V235.433C346.167 234.681 346.45 234.305 347.017 234.305H348.13C349.692 234.305 350.752 234.148 351.309 233.836C352.139 233.348 352.554 232.327 352.554 230.774C352.554 229.612 352.373 228.318 352.012 226.893L354.399 226.292C354.878 227.815 355.117 229.295 355.117 230.73C355.117 233.123 354.434 234.837 353.066 235.872C352.07 236.624 350.425 237 348.13 237ZM349.097 245.335L351.191 243.255L353.271 245.335L351.177 247.43L349.097 245.335ZM351.499 241.409L353.608 239.329L355.688 241.395L353.594 243.489L351.499 241.409ZM346.753 241.409L348.833 239.329L350.928 241.395L348.818 243.489L346.753 241.409Z" fill="white"/>
</g>
<defs>
<linearGradient id="paint0_linear" x1="0" y1="144.5" x2="490.234" y2="144.5" gradientUnits="userSpaceOnUse">
<stop stop-color="#EE0979"/>
<stop offset="1" stop-color="#FF6A00"/>
</linearGradient>
<clipPath id="clip0">
<rect width="500" height="289" fill="white"/>
</clipPath>
<clipPath id="clip1">
<rect width="130" height="130" fill="white" transform="translate(191 54)"/>
</clipPath>
</defs>
</svg>
